<svg id="Capa_1" data-name="Capa 1" xmlns="http://www.w3.org/2000/svg" viewBox="0 0 718.97 874.47"><defs><style>.cls-1,.cls-2{font-size:19.51px;}.cls-1,.cls-11,.cls-12,.cls-13,.cls-2,.cls-26,.cls-4,.cls-5,.cls-7,.cls-9{fill:#1d1d1b;}.cls-1,.cls-13,.cls-2,.cls-27{font-family:TazBarcelona;}.cls-1{letter-spacing:-0.01em;}.cls-2{letter-spacing:-0.01em;}.cls-22,.cls-25,.cls-28,.cls-29,.cls-3{fill:none;}.cls-22,.cls-29,.cls-3{stroke:#1d1d1b;}.cls-22,.cls-3{stroke-linejoin:bevel;}.cls-29,.cls-3{stroke-width:0.73px;}.cls-13,.cls-4,.cls-5{font-size:19.59px;}.cls-4{font-family:TazBarcelona-Black, TazBarcelona;letter-spacing:0.01em;}.cls-11,.cls-4,.cls-7,.cls-8{font-weight:800;}.cls-5{font-family:TazBarcelona-SemiLight, TazBarcelona;font-weight:300;letter-spacing:-0.01em;}.cls-27,.cls-6,.cls-8{fill:#009e4d;}.cls-12,.cls-27,.cls-7,.cls-8{font-size:20.74px;}.cls-11,.cls-7,.cls-8{font-family:TazBarcelona-ExtraBold, TazBarcelona;}.cls-10{fill:#77c8d2;}.cls-11,.cls-26{font-size:20.81px;}.cls-12{font-family:TazBarcelona-Bold, TazBarcelona;font-weight:700;}.cls-14{letter-spacing:-0.02em;}.cls-15{letter-spacing:-0.01em;}.cls-16{letter-spacing:0em;}.cls-17,.cls-23{fill:#009640;}.cls-18{letter-spacing:-0.01em;}.cls-19{letter-spacing:-0.02em;}.cls-20{letter-spacing:-0.01em;}.cls-21{letter-spacing:-0.01em;}.cls-22{stroke-width:0.73px;}.cls-23,.cls-24{stroke:#fff;stroke-width:2.45px;}.cls-23,.cls-24,.cls-25,.cls-28,.cls-29{stroke-miterlimit:10;}.cls-25{stroke:#009e4d;}.cls-25,.cls-28{stroke-width:1.22px;}.cls-26{font-family:TazBarcelona-SemiBold, TazBarcelona;font-weight:600;}.cls-28{stroke:#77c8d2;}</style></defs><text class="cls-1" transform="translate(0.03 856.08)">2008</text><text class="cls-1" transform="translate(49.05 856.08)">2009</text><text class="cls-1" transform="translate(155.25 856.08)">2011</text><text class="cls-1" transform="translate(263.08 856.08)">2013</text><text class="cls-1" transform="translate(375.8 856.08)">2015</text><text class="cls-1" transform="translate(482 856.08)">2017</text><text class="cls-2" transform="translate(590.65 856.08)">2019</text><text class="cls-2" transform="translate(666.65 856.08)">2021</text><line class="cls-3" x1="272.16" y1="825.05" x2="272.16" y2="834.67"/><line class="cls-3" x1="2.35" y1="825.05" x2="2.35" y2="834.67"/><line class="cls-3" x1="55.15" y1="825.05" x2="55.15" y2="834.67"/><line class="cls-3" x1="163.66" y1="825.05" x2="163.66" y2="834.67"/><line class="cls-3" x1="380.67" y1="825.05" x2="380.67" y2="834.67"/><line class="cls-3" x1="489.17" y1="825.05" x2="489.17" y2="834.67"/><line class="cls-3" x1="597.67" y1="825.05" x2="597.67" y2="834.67"/><line class="cls-3" x1="706.18" y1="825.05" x2="706.18" y2="834.67"/><text class="cls-4" transform="translate(2.15 31.54)">Diferencia retributiva por categoría <tspan x="0" y="22.03">profesional en el 2021</tspan></text><text class="cls-5" transform="translate(18.13 110.37)">Hombres</text><text class="cls-5" transform="translate(114.34 110.37)">Mujeres</text><text class="cls-5" transform="translate(2.15 80.99)">En euros</text><text class="cls-4" transform="translate(3.93 444.67)">Evolución de las diferencias retributivas y presencia de la mujer en cargos directivos</text><path class="cls-6" d="M1.17,748.75a4.57,4.57,0,1,0,4.56-4.57A4.56,4.56,0,0,0,1.17,748.75Z" transform="translate(1.02 -0.92)"/><path class="cls-6" d="M50.33,621a4.57,4.57,0,1,0,4.56-4.56A4.57,4.57,0,0,0,50.33,621Z" transform="translate(1.02 -0.92)"/><path class="cls-6" d="M104.26,632.56a4.56,4.56,0,1,0,4.56-4.56A4.56,4.56,0,0,0,104.26,632.56Z" transform="translate(1.02 -0.92)"/><path class="cls-6" d="M158.18,742.88a4.57,4.57,0,1,0,4.56-4.56A4.57,4.57,0,0,0,158.18,742.88Z" transform="translate(1.02 -0.92)"/><path class="cls-6" d="M212.1,611.59a4.57,4.57,0,1,0,4.56-4.56A4.57,4.57,0,0,0,212.1,611.59Z" transform="translate(1.02 -0.92)"/><path class="cls-6" d="M320,579.91a4.57,4.57,0,1,0,4.56-4.57A4.56,4.56,0,0,0,320,579.91Z" transform="translate(1.02 -0.92)"/><path class="cls-6" d="M373.87,606a4.57,4.57,0,1,0,4.56-4.56A4.57,4.57,0,0,0,373.87,606Z" transform="translate(1.02 -0.92)"/><path class="cls-6" d="M427.79,617.14a4.57,4.57,0,1,0,4.57-4.56A4.58,4.58,0,0,0,427.79,617.14Z" transform="translate(1.02 -0.92)"/><path class="cls-6" d="M535.64,623.23a4.57,4.57,0,1,0,4.56-4.57A4.56,4.56,0,0,0,535.64,623.23Z" transform="translate(1.02 -0.92)"/><text class="cls-7" transform="translate(668.04 565.2)">18,8</text><path class="cls-6" d="M266,620.23a4.56,4.56,0,1,0,4.56-4.56A4.56,4.56,0,0,0,266,620.23Z" transform="translate(1.02 -0.92)"/><path class="cls-6" d="M481.72,595.49a4.57,4.57,0,1,0,4.56-4.57A4.56,4.56,0,0,0,481.72,595.49Z" transform="translate(1.02 -0.92)"/><text class="cls-8" transform="translate(668.04 709.67)">14,4</text><path class="cls-6" d="M96.38,103.86a5,5,0,1,0,5-5A5,5,0,0,0,96.38,103.86Z" transform="translate(1.02 -0.92)"/><path class="cls-9" d="M1.34,103.86a5,5,0,1,0,5-5A5,5,0,0,0,1.34,103.86Z" transform="translate(1.02 -0.92)"/><text class="cls-5" transform="translate(18.13 478.87)">Porcentaje de presencia de la mujer <tspan x="0" y="23.5">en cargos directivos</tspan></text><text class="cls-5" transform="translate(328.75 478.87)">Porcentaje de diferencia salarial entre hombres<tspan x="0" y="23.5">y mujeres directivas</tspan></text><path class="cls-6" d="M310.8,472.36a5,5,0,1,0,5-5A5,5,0,0,0,310.8,472.36Z" transform="translate(1.02 -0.92)"/><path class="cls-10" d="M1.34,472.36a5,5,0,1,0,5-5A5,5,0,0,0,1.34,472.36Z" transform="translate(1.02 -0.92)"/><text class="cls-4" transform="translate(366.62 31.54)">Cuota de presencia por categoría <tspan x="0" y="22.03">profesional en el 2021</tspan></text><text class="cls-5" transform="translate(380.21 110.37)">Hombres</text><text class="cls-5" transform="translate(483.77 110.37)">Mujeres</text><text class="cls-5" transform="translate(366.62 80.99)">En euros</text><path class="cls-6" d="M465.82,103.86a5,5,0,1,0,5-5A5,5,0,0,0,465.82,103.86Z" transform="translate(1.02 -0.92)"/><path class="cls-9" d="M365.6,103.86a5,5,0,1,0,5-5A5,5,0,0,0,365.6,103.86Z" transform="translate(1.02 -0.92)"/><text class="cls-11" transform="translate(215.06 180.23)">87.626</text><text class="cls-12" transform="translate(182.24 205.54)">76.610</text><text class="cls-13" transform="translate(2.1 154.13)">Di<tspan class="cls-14" x="15.69" y="0">r</tspan><tspan x="21.39" y="0">ecti</tspan><tspan class="cls-15" x="48.14" y="0">v</tspan><tspan class="cls-16" x="55.99" y="0">os</tspan></text><rect class="cls-9" x="2.45" y="163.41" width="206.62" height="19.09"/><rect class="cls-17" x="2.45" y="188.39" width="173.82" height="19.09"/><text class="cls-11" transform="translate(283.51 193.29)">14,4%</text><text class="cls-11" transform="translate(117.19 282.22)">44.444</text><text class="cls-12" transform="translate(102.81 307.52)">40.042</text><text class="cls-13" transform="translate(2.1 256.11)">Mandos i<tspan class="cls-18" x="69.39" y="0">n</tspan><tspan class="cls-19" x="79.11" y="0">t</tspan><tspan x="84.57" y="0">ermedios</tspan></text><rect class="cls-9" x="2.45" y="265.4" width="106.84" height="19.1"/><rect class="cls-17" x="2.45" y="290.37" width="95.26" height="19.09"/><text class="cls-11" transform="translate(283.51 292.01)">11,0%</text><text class="cls-11" transform="translate(68.96 381.75)">26.932</text><text class="cls-12" transform="translate(64.73 407.06)">24.164</text><text class="cls-13" transform="translate(2.1 355.65)">Empleados <tspan class="cls-20" x="87.06" y="0">b</tspan><tspan x="96.58" y="0">a</tspan><tspan class="cls-21" x="105.96" y="0">s</tspan><tspan x="112.91" y="0">e</tspan></text><rect class="cls-9" x="2.45" y="364.93" width="62.25" height="19.09"/><rect class="cls-17" x="2.45" y="389.91" width="55.99" height="19.09"/><text class="cls-11" transform="translate(283.51 392.36)">11,5%</text><line class="cls-22" x1="1.4" y1="0.37" x2="333.41" y2="0.37"/><line class="cls-22" x1="1.4" y1="326.14" x2="333.41" y2="326.14"/><line class="cls-22" x1="366.69" y1="0.37" x2="710.01" y2="0.37"/><text class="cls-13" transform="translate(370.46 154.13)">Di<tspan class="cls-14" x="15.69" y="0">r</tspan><tspan x="21.39" y="0">ecti</tspan><tspan class="cls-15" x="48.14" y="0">v</tspan><tspan class="cls-16" x="55.99" y="0">os</tspan></text><rect class="cls-23" x="643.46" y="183.42" width="64.1" height="25.84"/><rect class="cls-24" x="366.62" y="183.42" width="276.84" height="25.84"/><text class="cls-11" transform="translate(371.9 175.94)">81,2</text><text class="cls-12" transform="translate(669.55 175.88)">18,8</text><text class="cls-13" transform="translate(370.46 256.11)">Mandos i<tspan class="cls-18" x="69.39" y="0">n</tspan><tspan class="cls-19" x="79.11" y="0">t</tspan><tspan x="84.57" y="0">ermedios</tspan></text><rect class="cls-23" x="610.39" y="286.24" width="97.17" height="25.84"/><rect class="cls-24" x="366.62" y="286.24" width="243.77" height="25.84"/><text class="cls-11" transform="translate(371.9 278.03)">71,5</text><text class="cls-12" transform="translate(669.55 277.97)">28,5</text><text class="cls-13" transform="translate(370.46 351.36)">Empleados <tspan class="cls-20" x="87.06" y="0">b</tspan><tspan x="96.58" y="0">a</tspan><tspan class="cls-21" x="105.96" y="0">s</tspan><tspan x="112.91" y="0">e</tspan></text><rect class="cls-23" x="566.41" y="383.17" width="141.15" height="25.84"/><rect class="cls-24" x="366.62" y="383.17" width="199.79" height="25.84"/><text class="cls-11" transform="translate(371.9 372.97)">58,6</text><text class="cls-12" transform="translate(669.55 372.91)">41,4</text><path class="cls-6" d="M589.56,644.07a4.57,4.57,0,1,0,4.57-4.56A4.58,4.58,0,0,0,589.56,644.07Z" transform="translate(1.02 -0.92)"/><path class="cls-6" d="M643.49,645.93a4.57,4.57,0,1,0,4.56-4.57A4.56,4.56,0,0,0,643.49,645.93Z" transform="translate(1.02 -0.92)"/><path class="cls-6" d="M697.41,684.8a4.57,4.57,0,1,0,4.56-4.56A4.56,4.56,0,0,0,697.41,684.8Z" transform="translate(1.02 -0.92)"/><polyline class="cls-25" points="2 747.83 55.92 620.07 109.84 631.64 163.76 741.97 217.69 610.68 271.61 619.32 325.53 578.99 379.46 605.07 433.38 616.23 487.3 594.57 541.23 622.31 595.15 643.61 649.07 645.01 703 683.88"/><text class="cls-26" transform="translate(0.03 542.51)">19,5</text><text class="cls-27" transform="translate(0.03 771.67)">11,9</text><text class="cls-26" transform="translate(28.23 746.37)">12,8</text><text class="cls-27" transform="translate(36.85 604.83)">17,0</text><text class="cls-26" transform="translate(81.99 751.94)">12,0</text><text class="cls-27" transform="translate(94.16 617.51)">16,5</text><text class="cls-26" transform="translate(131.55 775.11)">11,7</text><text class="cls-27" transform="translate(173.64 740.56)">12,0</text><text class="cls-26" transform="translate(186.86 777.45)">11,6</text><text class="cls-27" transform="translate(195.71 598.5)">17,3</text><text class="cls-26" transform="translate(253.7 807.81)">10,3</text><text class="cls-27" transform="translate(253.02 643.88)">17,0</text><text class="cls-26" transform="translate(297.38 739.24)">11,7</text><text class="cls-27" transform="translate(303.26 565.64)">18,6</text><text class="cls-26" transform="translate(358.08 717.51)">12,5</text><text class="cls-27" transform="translate(372.69 593.9)">17,5</text><text class="cls-26" transform="translate(419.34 773.47)">11,8</text><text class="cls-27" transform="translate(413.76 638.61)">17,1</text><text class="cls-26" transform="translate(485.52 735.98)">13,2</text><text class="cls-27" transform="translate(468.61 581.35)">18,0</text><text class="cls-26" transform="translate(536.74 685.77)">15,4</text><text class="cls-27" transform="translate(531.16 610.76)">16,9</text><text class="cls-26" transform="translate(584.41 626.95)">16,2</text><text class="cls-27" transform="translate(570.54 664.09)">16,1</text><text class="cls-26" transform="translate(658.72 640.52)">16,4</text><text class="cls-27" transform="translate(619.49 670.47)">15,9</text><path class="cls-10" d="M1.17,556.79a4.57,4.57,0,1,0,4.56-4.56A4.57,4.57,0,0,0,1.17,556.79Z" transform="translate(1.02 -0.92)"/><path class="cls-10" d="M50.33,724.65a4.57,4.57,0,1,0,4.56-4.57A4.56,4.56,0,0,0,50.33,724.65Z" transform="translate(1.02 -0.92)"/><path class="cls-10" d="M104.26,729.21a4.56,4.56,0,1,0,4.56-4.56A4.56,4.56,0,0,0,104.26,729.21Z" transform="translate(1.02 -0.92)"/><path class="cls-10" d="M158.18,753a4.57,4.57,0,1,0,4.56-4.56A4.57,4.57,0,0,0,158.18,753Z" transform="translate(1.02 -0.92)"/><path class="cls-10" d="M212.1,754.06a4.57,4.57,0,1,0,4.56-4.56A4.56,4.56,0,0,0,212.1,754.06Z" transform="translate(1.02 -0.92)"/><path class="cls-10" d="M320,753.55a4.57,4.57,0,1,0,4.56-4.56A4.56,4.56,0,0,0,320,753.55Z" transform="translate(1.02 -0.92)"/><path class="cls-10" d="M373.87,732.76a4.57,4.57,0,1,0,4.56-4.56A4.56,4.56,0,0,0,373.87,732.76Z" transform="translate(1.02 -0.92)"/><path class="cls-10" d="M427.79,750a4.57,4.57,0,1,0,4.57-4.56A4.57,4.57,0,0,0,427.79,750Z" transform="translate(1.02 -0.92)"/><path class="cls-10" d="M535.64,661.26a4.57,4.57,0,1,0,4.56-4.57A4.56,4.56,0,0,0,535.64,661.26Z" transform="translate(1.02 -0.92)"/><path class="cls-10" d="M266,786a4.56,4.56,0,1,0,4.56-4.56A4.57,4.57,0,0,0,266,786Z" transform="translate(1.02 -0.92)"/><path class="cls-10" d="M481.72,715a4.57,4.57,0,1,0,4.56-4.56A4.56,4.56,0,0,0,481.72,715Z" transform="translate(1.02 -0.92)"/><path class="cls-10" d="M643.49,634.89a4.57,4.57,0,1,0,4.56-4.57A4.56,4.56,0,0,0,643.49,634.89Z" transform="translate(1.02 -0.92)"/><path class="cls-10" d="M697.41,575.56A4.57,4.57,0,1,0,702,571,4.56,4.56,0,0,0,697.41,575.56Z" transform="translate(1.02 -0.92)"/><path class="cls-10" d="M589.56,640a4.57,4.57,0,1,0,4.57-4.56A4.57,4.57,0,0,0,589.56,640Z" transform="translate(1.02 -0.92)"/><polyline class="cls-28" points="2 555.88 55.92 723.73 109.84 728.29 163.76 752.13 217.69 753.14 271.61 785.09 325.53 752.63 379.46 731.84 433.38 749.08 487.3 714.09 541.23 660.34 595.15 639.04 649.07 633.97 703 574.64"/><line class="cls-29" y1="874.1" x2="710.78" y2="874.1"/><line class="cls-22" x1="1.4" y1="226.09" x2="333.41" y2="226.09"/><line class="cls-3" x1="364.34" y1="326.14" x2="708.6" y2="326.14"/><line class="cls-3" x1="364.34" y1="226.09" x2="708.6" y2="226.09"/></svg>