<svg id="Capa_1" data-name="Capa 1" xmlns="http://www.w3.org/2000/svg" viewBox="0 0 289 357"><defs><style>.cls-1{font-size:7.97px;letter-spacing:-0.01em;}.cls-1,.cls-10,.cls-11,.cls-12,.cls-24,.cls-3,.cls-4,.cls-6,.cls-8{fill:#1d1d1b;}.cls-1,.cls-12,.cls-25{font-family:TazBarcelona;}.cls-2,.cls-20,.cls-23,.cls-26{fill:none;}.cls-2,.cls-20{stroke:#1d1d1b;stroke-linejoin:bevel;}.cls-2{stroke-width:0.3px;}.cls-12,.cls-3,.cls-4{font-size:8px;}.cls-3{font-family:TazBarcelona-Black, TazBarcelona;letter-spacing:0.01em;}.cls-10,.cls-3,.cls-6,.cls-7{font-weight:800;}.cls-4{font-family:TazBarcelona-SemiLight, TazBarcelona;font-weight:300;}.cls-19,.cls-4{letter-spacing:-0.01em;}.cls-25,.cls-5,.cls-7{fill:#009e4d;}.cls-11,.cls-25,.cls-6,.cls-7{font-size:8.47px;}.cls-10,.cls-6,.cls-7{font-family:TazBarcelona-ExtraBold, TazBarcelona;}.cls-9{fill:#77c8d2;}.cls-10,.cls-24{font-size:8.5px;}.cls-11{font-family:TazBarcelona-Bold, TazBarcelona;font-weight:700;}.cls-13{letter-spacing:-0.02em;}.cls-14{letter-spacing:-0.01em;}.cls-15,.cls-21{fill:#009640;}.cls-16{letter-spacing:-0.01em;}.cls-17{letter-spacing:-0.02em;}.cls-18{letter-spacing:-0.01em;}.cls-20{stroke-width:0.3px;}.cls-21,.cls-22{stroke:#fff;}.cls-21,.cls-22,.cls-23,.cls-26{stroke-miterlimit:10;}.cls-23{stroke:#009e4d;}.cls-23,.cls-26{stroke-width:0.5px;}.cls-24{font-family:TazBarcelona-SemiBold, TazBarcelona;font-weight:600;}.cls-26{stroke:#77c8d2;}</style></defs><text class="cls-1" transform="translate(0 358)">2008</text><text class="cls-1" transform="translate(20.02 358)">2009</text><text class="cls-1" transform="translate(63.4 358)">2011</text><text class="cls-1" transform="translate(107.45 358)">2013</text><text class="cls-1" transform="translate(153.49 358)">2015</text><text class="cls-1" transform="translate(196.87 358)">2017</text><text class="cls-1" transform="translate(241.25 358)">2019</text><text class="cls-1" transform="translate(272.29 358)">2021</text><line class="cls-2" x1="111.16" y1="345.33" x2="111.16" y2="349.26"/><line class="cls-2" x1="0.95" y1="345.33" x2="0.95" y2="349.26"/><line class="cls-2" x1="22.52" y1="345.33" x2="22.52" y2="349.26"/><line class="cls-2" x1="66.84" y1="345.33" x2="66.84" y2="349.26"/><line class="cls-2" x1="155.48" y1="345.33" x2="155.48" y2="349.26"/><line class="cls-2" x1="199.8" y1="345.33" x2="199.8" y2="349.26"/><line class="cls-2" x1="244.11" y1="345.33" x2="244.11" y2="349.26"/><line class="cls-2" x1="288.43" y1="345.33" x2="288.43" y2="349.26"/><text class="cls-3" transform="translate(0.87 17.12)">Diferencia retributiva por categoría <tspan x="0" y="9">profesional en el 2021</tspan></text><text class="cls-4" transform="translate(7.39 49.32)">Hombres</text><text class="cls-4" transform="translate(46.69 49.32)">Mujeres</text><text class="cls-4" transform="translate(0.87 37.32)">En euros</text><text class="cls-3" transform="translate(1.59 189.96)">Evolución de las diferencias retributivas y presencia de la mujer en cargos directivos</text><path class="cls-5" d="M.88,313.79a1.87,1.87,0,1,0,1.87-1.87A1.87,1.87,0,0,0,.88,313.79Z"/><path class="cls-5" d="M21,261.6a1.86,1.86,0,1,0,1.86-1.86A1.86,1.86,0,0,0,21,261.6Z"/><path class="cls-5" d="M43,266.33a1.87,1.87,0,1,0,1.86-1.87A1.86,1.86,0,0,0,43,266.33Z"/><path class="cls-5" d="M65,311.39a1.87,1.87,0,1,0,1.86-1.86A1.87,1.87,0,0,0,65,311.39Z"/><path class="cls-5" d="M87,257.76a1.87,1.87,0,1,0,1.87-1.86A1.87,1.87,0,0,0,87,257.76Z"/><path class="cls-5" d="M131.09,244.82A1.87,1.87,0,1,0,133,243,1.87,1.87,0,0,0,131.09,244.82Z"/><path class="cls-5" d="M153.12,255.47a1.87,1.87,0,1,0,1.86-1.86A1.87,1.87,0,0,0,153.12,255.47Z"/><path class="cls-5" d="M175.14,260a1.87,1.87,0,1,0,1.87-1.86A1.87,1.87,0,0,0,175.14,260Z"/><path class="cls-5" d="M219.2,262.52a1.86,1.86,0,1,0,1.86-1.87A1.86,1.86,0,0,0,219.2,262.52Z"/><text class="cls-6" transform="translate(272.86 239.19)">18,8</text><path class="cls-5" d="M109.07,261.29a1.87,1.87,0,1,0,1.86-1.86A1.87,1.87,0,0,0,109.07,261.29Z"/><path class="cls-5" d="M197.17,251.18a1.87,1.87,0,1,0,1.86-1.86A1.87,1.87,0,0,0,197.17,251.18Z"/><text class="cls-7" transform="translate(272.86 298.2)">14,4</text><path class="cls-5" d="M39.78,46.29a2.06,2.06,0,1,0,2-2A2.05,2.05,0,0,0,39.78,46.29Z"/><path class="cls-8" d="M1,46.29a2.06,2.06,0,1,0,2.06-2A2.06,2.06,0,0,0,1,46.29Z"/><text class="cls-4" transform="translate(7.39 203.93)">Porcentaje de presencia de la mujer <tspan x="0" y="9.6">en cargos directivos</tspan></text><text class="cls-4" transform="translate(134.27 203.93)">Porcentaje de diferencia salarial entre hombres<tspan x="0" y="9.6">y mujeres directivas</tspan></text><path class="cls-5" d="M127.36,200.89a2,2,0,1,0,2-2A2,2,0,0,0,127.36,200.89Z"/><path class="cls-9" d="M1,200.89a2.06,2.06,0,1,0,2.06-2A2.06,2.06,0,0,0,1,200.89Z"/><text class="cls-3" transform="translate(149.74 17.12)">Cuota de presencia por categoría <tspan x="0" y="9">profesional en el 2021</tspan></text><text class="cls-4" transform="translate(155.29 49.32)">Hombres</text><text class="cls-4" transform="translate(197.59 49.32)">Mujeres</text><text class="cls-4" transform="translate(149.74 37.32)">En euros</text><path class="cls-5" d="M190.68,46.29a2.06,2.06,0,1,0,2-2A2.05,2.05,0,0,0,190.68,46.29Z"/><path class="cls-8" d="M149.74,46.29a2.06,2.06,0,1,0,2.06-2A2.06,2.06,0,0,0,149.74,46.29Z"/><text class="cls-10" transform="translate(87.83 77.86)">87.626</text><text class="cls-11" transform="translate(74.43 88.19)">76.610</text><text class="cls-12" transform="translate(0.85 67.2)">Di<tspan class="cls-13" x="6.41" y="0">r</tspan><tspan x="8.74" y="0">ecti</tspan><tspan class="cls-14" x="19.66" y="0">v</tspan><tspan x="22.87" y="0">os</tspan></text><rect class="cls-8" x="0.99" y="70.99" width="84.4" height="7.8"/><rect class="cls-15" x="0.99" y="81.19" width="71" height="7.8"/><text class="cls-10" transform="translate(115.79 83.19)">14,4%</text><text class="cls-10" transform="translate(47.86 119.51)">44.444</text><text class="cls-11" transform="translate(41.98 129.85)">40.042</text><text class="cls-12" transform="translate(0.85 108.85)">Mandos i<tspan class="cls-16" x="28.34" y="0">n</tspan><tspan class="cls-17" x="32.31" y="0">t</tspan><tspan x="34.54" y="0">ermedios</tspan></text><rect class="cls-8" x="0.99" y="112.65" width="43.64" height="7.8"/><rect class="cls-15" x="0.99" y="122.85" width="38.91" height="7.8"/><text class="cls-10" transform="translate(115.79 123.51)">11,0%</text><text class="cls-10" transform="translate(28.16 160.17)">26.932</text><text class="cls-11" transform="translate(26.43 170.51)">24.164</text><text class="cls-12" transform="translate(0.85 149.51)">Empleados <tspan class="cls-18" x="35.56" y="0">b</tspan><tspan x="39.45" y="0">a</tspan><tspan class="cls-19" x="43.28" y="0">s</tspan><tspan x="46.12" y="0">e</tspan></text><rect class="cls-8" x="0.99" y="153.3" width="25.43" height="7.8"/><rect class="cls-15" x="0.99" y="163.5" width="22.87" height="7.8"/><text class="cls-10" transform="translate(115.79 164.5)">11,5%</text><line class="cls-20" x1="0.56" y1="3.56" x2="136.17" y2="3.56"/><line class="cls-20" x1="0.56" y1="137.46" x2="136.17" y2="137.46"/><line class="cls-20" x1="149.77" y1="3.56" x2="290" y2="3.56"/><text class="cls-12" transform="translate(151.31 67.2)">Di<tspan class="cls-13" x="6.41" y="0">r</tspan><tspan x="8.74" y="0">ecti</tspan><tspan class="cls-14" x="19.66" y="0">v</tspan><tspan x="22.87" y="0">os</tspan></text><rect class="cls-21" x="262.82" y="79.16" width="26.18" height="10.55"/><rect class="cls-22" x="149.74" y="79.16" width="113.08" height="10.55"/><text class="cls-10" transform="translate(151.9 76.11)">81,2</text><text class="cls-11" transform="translate(273.48 76.08)">18,8</text><text class="cls-12" transform="translate(151.31 108.85)">Mandos i<tspan class="cls-16" x="28.34" y="0">n</tspan><tspan class="cls-17" x="32.31" y="0">t</tspan><tspan x="34.54" y="0">ermedios</tspan></text><rect class="cls-21" x="249.31" y="121.16" width="39.69" height="10.55"/><rect class="cls-22" x="149.74" y="121.16" width="99.57" height="10.55"/><text class="cls-10" transform="translate(151.9 117.81)">71,5</text><text class="cls-11" transform="translate(273.48 117.78)">28,5</text><text class="cls-12" transform="translate(151.31 147.76)">Empleados <tspan class="cls-18" x="35.56" y="0">b</tspan><tspan x="39.45" y="0">a</tspan><tspan class="cls-19" x="43.28" y="0">s</tspan><tspan x="46.12" y="0">e</tspan></text><rect class="cls-21" x="231.35" y="160.75" width="57.65" height="10.55"/><rect class="cls-22" x="149.74" y="160.75" width="81.61" height="10.55"/><text class="cls-10" transform="translate(151.9 156.58)">58,6</text><text class="cls-11" transform="translate(273.48 156.56)">41,4</text><path class="cls-5" d="M241.22,271a1.87,1.87,0,1,0,1.86-1.86A1.86,1.86,0,0,0,241.22,271Z"/><path class="cls-5" d="M263.25,271.79a1.86,1.86,0,1,0,1.86-1.87A1.86,1.86,0,0,0,263.25,271.79Z"/><path class="cls-5" d="M285.27,287.67a1.87,1.87,0,1,0,1.86-1.87A1.87,1.87,0,0,0,285.27,287.67Z"/><polyline class="cls-23" points="0.81 313.79 22.83 261.6 44.86 266.33 66.88 311.39 88.91 257.76 110.93 261.29 132.96 244.82 154.98 255.47 177.01 260.03 199.03 251.19 221.06 262.52 243.08 271.21 265.11 271.79 287.14 287.67"/><text class="cls-24" transform="translate(0 229.92)">19,5</text><text class="cls-25" transform="translate(0 323.52)">11,9</text><text class="cls-24" transform="translate(11.52 313.19)">12,8</text><text class="cls-25" transform="translate(15.04 255.38)">17,0</text><text class="cls-24" transform="translate(33.48 315.47)">12,0</text><text class="cls-25" transform="translate(38.45 260.55)">16,5</text><text class="cls-24" transform="translate(53.72 324.93)">11,7</text><text class="cls-25" transform="translate(70.91 310.82)">12,0</text><text class="cls-24" transform="translate(76.31 325.88)">11,6</text><text class="cls-25" transform="translate(79.93 252.79)">17,3</text><text class="cls-24" transform="translate(103.62 338.29)">10,3</text><text class="cls-25" transform="translate(103.34 271.33)">17,0</text><text class="cls-24" transform="translate(121.46 310.27)">11,7</text><text class="cls-25" transform="translate(123.86 239.37)">18,6</text><text class="cls-24" transform="translate(146.25 301.4)">12,5</text><text class="cls-25" transform="translate(152.22 250.91)">17,5</text><text class="cls-24" transform="translate(171.27 324.26)">11,8</text><text class="cls-25" transform="translate(168.99 269.17)">17,1</text><text class="cls-24" transform="translate(198.31 308.94)">13,2</text><text class="cls-25" transform="translate(191.4 245.78)">18,0</text><text class="cls-24" transform="translate(219.23 288.44)">15,4</text><text class="cls-25" transform="translate(216.95 257.8)">16,9</text><text class="cls-24" transform="translate(238.7 264.41)">16,2</text><text class="cls-25" transform="translate(233.03 279.58)">16,1</text><text class="cls-24" transform="translate(269.05 269.95)">16,4</text><text class="cls-25" transform="translate(253.03 282.19)">15,9</text><path class="cls-9" d="M.88,235.38a1.87,1.87,0,1,0,1.87-1.86A1.87,1.87,0,0,0,.88,235.38Z"/><path class="cls-9" d="M21,303.94a1.86,1.86,0,1,0,1.86-1.86A1.87,1.87,0,0,0,21,303.94Z"/><path class="cls-9" d="M43,305.81a1.87,1.87,0,1,0,1.86-1.87A1.86,1.86,0,0,0,43,305.81Z"/><path class="cls-9" d="M65,315.54a1.87,1.87,0,1,0,1.86-1.86A1.86,1.86,0,0,0,65,315.54Z"/><path class="cls-9" d="M87,316a1.87,1.87,0,1,0,1.87-1.87A1.87,1.87,0,0,0,87,316Z"/><path class="cls-9" d="M131.09,315.75a1.87,1.87,0,1,0,1.87-1.87A1.87,1.87,0,0,0,131.09,315.75Z"/><path class="cls-9" d="M153.12,307.26a1.87,1.87,0,1,0,1.86-1.87A1.86,1.86,0,0,0,153.12,307.26Z"/><path class="cls-9" d="M175.14,314.3a1.87,1.87,0,1,0,1.87-1.87A1.87,1.87,0,0,0,175.14,314.3Z"/><path class="cls-9" d="M219.2,278.05a1.86,1.86,0,1,0,1.86-1.86A1.86,1.86,0,0,0,219.2,278.05Z"/><path class="cls-9" d="M109.07,329a1.87,1.87,0,1,0,1.86-1.86A1.87,1.87,0,0,0,109.07,329Z"/><path class="cls-9" d="M197.17,300a1.87,1.87,0,1,0,1.86-1.87A1.86,1.86,0,0,0,197.17,300Z"/><path class="cls-9" d="M263.25,267.28a1.86,1.86,0,1,0,1.86-1.87A1.86,1.86,0,0,0,263.25,267.28Z"/><path class="cls-9" d="M285.27,243a1.87,1.87,0,1,0,1.86-1.86A1.87,1.87,0,0,0,285.27,243Z"/><path class="cls-9" d="M241.22,269.35a1.87,1.87,0,1,0,1.86-1.86A1.86,1.86,0,0,0,241.22,269.35Z"/><polyline class="cls-26" points="0.81 235.38 22.83 303.94 44.86 305.81 66.88 315.54 88.91 315.96 110.93 329 132.96 315.75 154.98 307.25 177.01 314.3 199.03 300 221.06 278.05 243.09 269.35 265.11 267.28 287.14 243.04"/><line class="cls-20" x1="0.56" y1="96.59" x2="136.17" y2="96.59"/><line class="cls-2" x1="148.81" y1="137.46" x2="289.43" y2="137.46"/><line class="cls-2" x1="148.81" y1="96.59" x2="289.43" y2="96.59"/></svg>