<?xml version="1.0" encoding="utf-8"?>
<svg viewBox="-2.541 -186.85 719.051 873.7" xmlns="http://www.w3.org/2000/svg">
  <text transform="matrix(1, 0, 0, 1, -2.3847, 668.843506)" class="st0 st1" style="white-space: pre; font-family: FiraSansCondensed-ExtraBold; font-size: 19.5123px; line-height: 31.2197px; perspective-origin: 14.9375px 0px;">2008</text>
  <text transform="matrix(1, 0, 0, 1, 46.6343, 668.843506)" class="st0 st1" style="white-space: pre; font-family: FiraSansCondensed-ExtraBold; font-size: 19.5123px; line-height: 31.2197px; perspective-origin: 14.8281px 0px;">2009</text>
  <text transform="matrix(1, 0, 0, 1, 152.835999, 668.843506)" class="st0 st1" style="white-space: pre; font-family: FiraSansCondensed-ExtraBold; font-size: 19.5123px; line-height: 31.2197px; perspective-origin: 13.0625px 0px;">2011</text>
  <text transform="matrix(1, 0, 0, 1, 260.664581, 668.843506)" class="st0 st1" style="white-space: pre; font-family: FiraSansCondensed-ExtraBold; font-size: 19.5123px; line-height: 31.2197px; perspective-origin: 13.5312px 0px;">2013</text>
  <text transform="matrix(1, 0, 0, 1, 373.389679, 668.843506)" class="st0 st1" style="white-space: pre; font-family: FiraSansCondensed-ExtraBold; font-size: 19.5123px; line-height: 31.2197px; perspective-origin: 13.6875px 0px;">2015</text>
  <text transform="matrix(1, 0, 0, 1, 479.587891, 668.843506)" class="st0 st1" style="white-space: pre; font-family: FiraSansCondensed-ExtraBold; font-size: 19.5123px; line-height: 31.2197px; perspective-origin: 13.2031px 0px;">2017</text>
  <text transform="matrix(1, 0, 0, 1, 588.234924, 668.843506)" class="st0 st1" style="white-space: pre; font-family: FiraSansCondensed-ExtraBold; font-size: 19.5123px; line-height: 31.2197px; perspective-origin: 13.875px 0px;">2019</text>
  <text transform="matrix(1, 0, 0, 1, 664.238831, 668.843506)" class="st0 st1" style="white-space: pre; font-family: FiraSansCondensed-ExtraBold; font-size: 19.5123px; line-height: 31.2197px; perspective-origin: 13.4375px 0px;">2021</text>
  <line class="st2" x1="271.1" y1="826" x2="271.1" y2="835.6" style="fill: none; stroke: rgb(0, 0, 0); stroke-linejoin: bevel; stroke-miterlimit: 10; stroke-width: 0.7345px;" transform="matrix(1, 0, 0, 1, -1.3901, -188.150009)"/>
  <line class="st2" x1="1.3" y1="826" x2="1.3" y2="835.6" style="fill: none; stroke: rgb(0, 0, 0); stroke-linejoin: bevel; stroke-miterlimit: 10; stroke-width: 0.7345px;" transform="matrix(1, 0, 0, 1, -1.3901, -188.150009)"/>
  <line class="st2" x1="54.1" y1="826" x2="54.1" y2="835.6" style="fill: none; stroke: rgb(0, 0, 0); stroke-linejoin: bevel; stroke-miterlimit: 10; stroke-width: 0.7345px;" transform="matrix(1, 0, 0, 1, -1.3901, -188.150009)"/>
  <line class="st2" x1="162.6" y1="826" x2="162.6" y2="835.6" style="fill: none; stroke: rgb(0, 0, 0); stroke-linejoin: bevel; stroke-miterlimit: 10; stroke-width: 0.7345px;" transform="matrix(1, 0, 0, 1, -1.3901, -188.150009)"/>
  <line class="st2" x1="379.6" y1="826" x2="379.6" y2="835.6" style="fill: none; stroke: rgb(0, 0, 0); stroke-linejoin: bevel; stroke-miterlimit: 10; stroke-width: 0.7345px;" transform="matrix(1, 0, 0, 1, -1.3901, -188.150009)"/>
  <line class="st2" x1="488.1" y1="826" x2="488.1" y2="835.6" style="fill: none; stroke: rgb(0, 0, 0); stroke-linejoin: bevel; stroke-miterlimit: 10; stroke-width: 0.7345px;" transform="matrix(1, 0, 0, 1, -1.3901, -188.150009)"/>
  <line class="st2" x1="596.6" y1="826" x2="596.6" y2="835.6" style="fill: none; stroke: rgb(0, 0, 0); stroke-linejoin: bevel; stroke-miterlimit: 10; stroke-width: 0.7345px;" transform="matrix(1, 0, 0, 1, -1.3901, -188.150009)"/>
  <line class="st2" x1="705.2" y1="826" x2="705.2" y2="835.6" style="fill: none; stroke: rgb(0, 0, 0); stroke-linejoin: bevel; stroke-miterlimit: 10; stroke-width: 0.7345px;" transform="matrix(1, 0, 0, 1, -1.3901, -188.150009)"/>
  <g transform="matrix(1, 0, 0, 1, -1.3901, -188.150009)">
    <rect x="1.1" y="18.3" class="st3" width="313.6" height="44.1" style="fill: none;"/>
    <text transform="matrix(1 0 0 1 1.1318 33.1626)" class="st0 st4" style="white-space: pre; font-family: FiraSansCondensed-ExtraBold; font-size: 19.5857px; line-height: 31.3371px; perspective-origin: 105.844px 0px;">Diferencia retributiva por categoría </text>
    <text transform="matrix(1 0 0 1 1.1318 55.1626)" class="st0 st4" style="white-space: pre; font-family: FiraSansCondensed-ExtraBold; font-size: 19.5857px; line-height: 31.3371px; perspective-origin: 64.625px 0px;">profesional en el 2021</text>
  </g>
  <g transform="matrix(1, 0, 0, 1, -1.3901, -188.150009)">
    <rect x="17.1" y="97" class="st3" width="74.7" height="21.6" style="fill: none;"/>
    <text transform="matrix(1 0 0 1 17.1035 111.4067)" class="st5 st4" style="white-space: pre; font-family: FiraSansCondensed-ThinItalic; font-size: 19.5857px; line-height: 31.3371px; perspective-origin: 25.1875px 0px;">Hombres</text>
  </g>
  <g transform="matrix(1, 0, 0, 1, -1.3901, -188.150009)">
    <rect x="113.3" y="97" class="st3" width="65.8" height="21.6" style="fill: none;"/>
    <text transform="matrix(1 0 0 1 113.3154 111.4067)" class="st5 st4" style="white-space: pre; font-family: FiraSansCondensed-ThinItalic; font-size: 19.5857px; line-height: 31.3371px; perspective-origin: 21.8125px 0px;">Mujeres</text>
  </g>
  <g transform="matrix(1, 0, 0, 1, -1.3901, -188.150009)">
    <rect x="1.1" y="67.6" class="st3" width="165.2" height="21.6" style="fill: none;"/>
    <text transform="matrix(1 0 0 1 1.1323 82.0283)" class="st5 st4" style="white-space: pre; font-family: FiraSansCondensed-ThinItalic; font-size: 19.5857px; line-height: 31.3371px; perspective-origin: 24.2656px 0px;">En euros</text>
  </g>
  <g transform="matrix(1, 0, 0, 1, -1.3901, -188.150009)">
    <rect x="2.9" y="431.4" class="st3" width="715" height="17.5" style="fill: none;"/>
    <text transform="matrix(1 0 0 1 2.9067 446.2928)" class="st0 st4" style="white-space: pre; font-family: FiraSansCondensed-ExtraBold; font-size: 19.5857px; line-height: 31.3371px; perspective-origin: 248.172px 0px;">Evolución de las diferencias retributivas y presencia de la mujer en cargos directivos</text>
  </g>
  <path class="st6" d="M1.2,748.7c0,2.5,2,4.6,4.6,4.6s4.6-2,4.6-4.6c0-2.5-2-4.6-4.6-4.6S1.2,746.2,1.2,748.7z" style="fill: rgb(0, 158, 77);" transform="matrix(1, 0, 0, 1, -1.3901, -188.150009)"/>
  <path class="st6" d="M50.3,621c0,2.5,2,4.6,4.6,4.6s4.6-2,4.6-4.6c0-2.5-2-4.6-4.6-4.6S50.3,618.5,50.3,621z" style="fill: rgb(0, 158, 77);" transform="matrix(1, 0, 0, 1, -1.3901, -188.150009)"/>
  <path class="st6" d="M104.3,632.6c0,2.5,2,4.6,4.6,4.6c2.5,0,4.6-2,4.6-4.6s-2-4.6-4.6-4.6S104.3,630,104.3,632.6z" style="fill: rgb(0, 158, 77);" transform="matrix(1, 0, 0, 1, -1.3901, -188.150009)"/>
  <path class="st6" d="M158.2,742.9c0,2.5,2,4.6,4.6,4.6s4.6-2,4.6-4.6s-2-4.6-4.6-4.6S158.2,740.4,158.2,742.9z" style="fill: rgb(0, 158, 77);" transform="matrix(1, 0, 0, 1, -1.3901, -188.150009)"/>
  <path class="st6" d="M212.1,611.6c0,2.5,2,4.6,4.6,4.6s4.6-2,4.6-4.6s-2-4.6-4.6-4.6S212.1,609.1,212.1,611.6z" style="fill: rgb(0, 158, 77);" transform="matrix(1, 0, 0, 1, -1.3901, -188.150009)"/>
  <path class="st6" d="M319.9,579.9c0,2.5,2,4.6,4.6,4.6c2.5,0,4.6-2,4.6-4.6s-2-4.6-4.6-4.6C322,575.3,319.9,577.4,319.9,579.9z" style="fill: rgb(0, 158, 77);" transform="matrix(1, 0, 0, 1, -1.3901, -188.150009)"/>
  <path class="st6" d="M373.9,606c0,2.5,2,4.6,4.6,4.6c2.5,0,4.6-2,4.6-4.6s-2-4.6-4.6-4.6S373.9,603.5,373.9,606z" style="fill: rgb(0, 158, 77);" transform="matrix(1, 0, 0, 1, -1.3901, -188.150009)"/>
  <path class="st6" d="M427.8,617.1c0,2.5,2,4.6,4.6,4.6c2.5,0,4.6-2,4.6-4.6c0-2.5-2-4.6-4.6-4.6 C429.8,612.6,427.8,614.6,427.8,617.1z" style="fill: rgb(0, 158, 77);" transform="matrix(1, 0, 0, 1, -1.3901, -188.150009)"/>
  <path class="st6" d="M535.6,623.2c0,2.5,2,4.6,4.6,4.6s4.6-2,4.6-4.6c0-2.5-2-4.6-4.6-4.6S535.6,620.7,535.6,623.2z" style="fill: rgb(0, 158, 77);" transform="matrix(1, 0, 0, 1, -1.3901, -188.150009)"/>
  <g transform="matrix(1, 0, 0, 1, -1.3901, -188.150009)">
    <text transform="matrix(1 0 0 1 669.1514 566.1165)" class="st0 st7" style="white-space: pre; font-family: FiraSansCondensed-ExtraBold; font-size: 20.7364px; line-height: 33.1782px; perspective-origin: 12.3125px 0px;">18,8</text>
  </g>
  <path class="st6" d="M266,620.2c0,2.5,2,4.6,4.6,4.6c2.5,0,4.6-2,4.6-4.6s-2-4.6-4.6-4.6C268.1,615.7,266,617.7,266,620.2z" style="fill: rgb(0, 158, 77);" transform="matrix(1, 0, 0, 1, -1.3901, -188.150009)"/>
  <path class="st6" d="M481.7,595.5c0,2.5,2,4.6,4.6,4.6c2.5,0,4.6-2,4.6-4.6c0-2.5-2-4.6-4.6-4.6C483.8,590.9,481.7,593,481.7,595.5z " style="fill: rgb(0, 158, 77);" transform="matrix(1, 0, 0, 1, -1.3901, -188.150009)"/>
  <text transform="matrix(1, 0, 0, 1, 668.300354, 522.440063)" class="st6 st0 st7" style="white-space: pre; fill: rgb(0, 158, 77); font-family: FiraSansCondensed-ExtraBold; font-size: 20.7364px; line-height: 33.1782px; perspective-origin: 11.9844px 0px;">14,4</text>
  <path class="st6" d="M96.4,103.9c0,2.8,2.3,5,5,5c2.8,0,5-2.3,5-5c0-2.8-2.3-5-5-5C98.6,98.8,96.4,101.1,96.4,103.9z" style="fill: rgb(0, 158, 77);" transform="matrix(1, 0, 0, 1, -1.3901, -188.150009)"/>
  <path d="M1.3,103.9c0,2.8,2.3,5,5,5c2.8,0,5-2.3,5-5c0-2.8-2.3-5-5-5C3.6,98.8,1.3,101.1,1.3,103.9z" transform="matrix(1, 0, 0, 1, -1.3901, -188.150009)"/>
  <g transform="matrix(1, 0, 0, 1, -1.3901, -188.150009)">
    <rect x="17.1" y="465.5" class="st3" width="271.3" height="41.8" style="fill: none;"/>
    <text transform="matrix(1 0 0 1 17.1035 479.9061)" class="st8 st4" style="white-space: pre; font-family: FiraSansCondensed-Thin; font-size: 19.5857px; line-height: 31.3371px; perspective-origin: 85.0156px 0px;">Porcentaje de presencia de la </text>
    <text transform="matrix(1 0 0 1 17.1035 503.4061)" class="st8 st4" style="white-space: pre; font-family: FiraSansCondensed-Thin; font-size: 19.5857px; line-height: 31.3371px; perspective-origin: 74.0625px 0px;">mujer en cargos directivos</text>
  </g>
  <g transform="matrix(1, 0, 0, 1, -1.3901, -188.150009)">
    <rect x="327.7" y="465.5" class="st3" width="368.5" height="51.9" style="fill: none;"/>
    <text transform="matrix(1 0 0 1 327.7271 479.9056)" class="st8 st4" style="white-space: pre; font-family: FiraSansCondensed-Thin; font-size: 19.5857px; line-height: 31.3371px; perspective-origin: 133.234px 0px;">Porcentaje de diferencia salarial entre hombres</text>
    <text transform="matrix(1 0 0 1 327.7271 503.4056)" class="st8 st4" style="white-space: pre; font-family: FiraSansCondensed-Thin; font-size: 19.5857px; line-height: 31.3371px; perspective-origin: 55.7031px 0px;">y mujeres directivas</text>
  </g>
  <path class="st6" d="M310.8,472.4c0,2.8,2.3,5,5,5c2.8,0,5-2.3,5-5c0-2.8-2.3-5-5-5C313,467.3,310.8,469.6,310.8,472.4z" style="fill: rgb(0, 158, 77);" transform="matrix(1, 0, 0, 1, -1.3901, -188.150009)"/>
  <path class="st9" d="M1.3,472.4c0,2.8,2.3,5,5,5c2.8,0,5-2.3,5-5c0-2.8-2.3-5-5-5C3.6,467.3,1.3,469.6,1.3,472.4z" style="fill: rgb(119, 200, 210);" transform="matrix(1, 0, 0, 1, -1.3901, -188.150009)"/>
  <g transform="matrix(1, 0, 0, 1, -1.3901, -188.150009)">
    <rect x="365.6" y="18.3" class="st3" width="286.9" height="45.3" style="fill: none;"/>
    <text transform="matrix(1 0 0 1 365.6001 33.1626)" class="st0 st4" style="white-space: pre; font-family: FiraSansCondensed-ExtraBold; font-size: 19.5857px; line-height: 31.3371px; perspective-origin: 98.75px 0px;">Cuota de presencia por categoría </text>
    <text transform="matrix(1 0 0 1 365.6001 55.1626)" class="st0 st4" style="white-space: pre; font-family: FiraSansCondensed-ExtraBold; font-size: 19.5857px; line-height: 31.3371px; perspective-origin: 64.625px 0px;">profesional en el 2021</text>
  </g>
  <g transform="matrix(1, 0, 0, 1, -1.3901, -188.150009)">
    <rect x="379.2" y="97" class="st3" width="74.7" height="21.6" style="fill: none;"/>
    <text transform="matrix(1 0 0 1 379.1929 111.4067)" class="st5 st4" style="white-space: pre; font-family: FiraSansCondensed-ThinItalic; font-size: 19.5857px; line-height: 31.3371px; perspective-origin: 25.1875px 0px;">Hombres</text>
  </g>
  <g transform="matrix(1, 0, 0, 1, -1.3901, -188.150009)">
    <rect x="482.7" y="97" class="st3" width="65.8" height="21.6" style="fill: none;"/>
    <text transform="matrix(1 0 0 1 482.7495 111.4067)" class="st5 st4" style="white-space: pre; font-family: FiraSansCondensed-ThinItalic; font-size: 19.5857px; line-height: 31.3371px; perspective-origin: 21.8125px 0px;">Mujeres</text>
  </g>
  <g transform="matrix(1, 0, 0, 1, -1.3901, -188.150009)">
    <rect x="365.6" y="67.6" class="st3" width="165.2" height="21.6" style="fill: none;"/>
    <text transform="matrix(1 0 0 1 365.6011 82.0283)" class="st5 st4" style="white-space: pre; font-family: FiraSansCondensed-ThinItalic; font-size: 19.5857px; line-height: 31.3371px; perspective-origin: 24.2656px 0px;">En euros</text>
  </g>
  <path class="st6" d="M465.8,103.9c0,2.8,2.3,5,5,5c2.8,0,5-2.3,5-5c0-2.8-2.3-5-5-5C468.1,98.8,465.8,101.1,465.8,103.9z" style="fill: rgb(0, 158, 77);" transform="matrix(1, 0, 0, 1, -1.3901, -188.150009)"/>
  <path d="M365.6,103.9c0,2.8,2.3,5,5,5c2.8,0,5-2.3,5-5c0-2.8-2.3-5-5-5C367.9,98.8,365.6,101.1,365.6,103.9z" transform="matrix(1, 0, 0, 1, -1.3901, -188.150009)"/>
  <text transform="matrix(1, 0, 0, 1, 212.65239, -7.002603)" class="st0 st10" style="white-space: pre; font-family: FiraSansCondensed-ExtraBold; font-size: 20.8098px; line-height: 33.2957px; perspective-origin: 19.1719px 0px;">87.626</text>
  <g transform="matrix(1, 0, 0, 1, -1.3901, -188.150009)">
    <text transform="matrix(1 0 0 1 184.3916 206.4526)" class="st0 st7" style="white-space: pre; font-family: FiraSansCondensed-ExtraBold; font-size: 20.7364px; line-height: 33.1782px; perspective-origin: 18.6875px 0px;">76.610</text>
  </g>
  <g transform="matrix(1, 0, 0, 1, -1.3901, -188.150009)">
    <text transform="matrix(1 0 0 1 1.0796 155.0449)" class="st8 st4" style="white-space: pre; font-family: FiraSansCondensed-Thin; font-size: 19.5857px; line-height: 31.3371px; perspective-origin: 27.2031px 0px;">Directivos</text>
  </g>
  <rect x="1.4" y="164.3" width="206.6" height="19.1" transform="matrix(1, 0, 0, 1, -1.3901, -188.150009)"/>
  <rect x="1.4" y="189.3" class="st11" width="173.8" height="19.1" style="fill: rgb(0, 150, 64);" transform="matrix(1, 0, 0, 1, -1.3901, -188.150009)"/>
  <text transform="matrix(1, 0, 0, 1, 281.101593, 6.054099)" class="st0 st10" style="white-space: pre; font-family: FiraSansCondensed-ExtraBold; font-size: 20.8098px; line-height: 33.2957px; perspective-origin: 17.375px 0px;">14,4%</text>
  <text transform="matrix(1, 0, 0, 1, 114.776398, 94.981285)" class="st0 st10" style="white-space: pre; font-family: FiraSansCondensed-ExtraBold; font-size: 20.8098px; line-height: 33.2957px; perspective-origin: 20.1094px 0px;">44.444</text>
  <g transform="matrix(1, 0, 0, 1, -1.3901, -188.150009)">
    <text transform="matrix(1 0 0 1 102.0171 308.4365)" class="st0 st7" style="white-space: pre; font-family: FiraSansCondensed-ExtraBold; font-size: 20.7364px; line-height: 33.1782px; perspective-origin: 20.0938px 0px;">40.042</text>
  </g>
  <g transform="matrix(1, 0, 0, 1, -1.3901, -188.150009)">
    <text transform="matrix(1 0 0 1 1.0796 257.0278)" class="st8 st4" style="white-space: pre; font-family: FiraSansCondensed-Thin; font-size: 19.5857px; line-height: 31.3371px; perspective-origin: 57.7344px 0px;">Mandos intermedios</text>
  </g>
  <rect x="1.4" y="266.3" width="106.8" height="19.1" transform="matrix(1, 0, 0, 1, -1.3901, -188.150009)"/>
  <rect x="1.4" y="291.3" class="st11" width="95.3" height="19.1" style="fill: rgb(0, 150, 64);" transform="matrix(1, 0, 0, 1, -1.3901, -188.150009)"/>
  <text transform="matrix(1, 0, 0, 1, 281.101593, 104.774284)" class="st0 st10" style="white-space: pre; font-family: FiraSansCondensed-ExtraBold; font-size: 20.8098px; line-height: 33.2957px; perspective-origin: 17.125px 0px;">11,0%</text>
  <text transform="matrix(1, 0, 0, 1, 66.552803, 194.518478)" class="st0 st10" style="white-space: pre; font-family: FiraSansCondensed-ExtraBold; font-size: 20.8098px; line-height: 33.2957px; perspective-origin: 18.8125px 0px;">26.932</text>
  <g transform="matrix(1, 0, 0, 1, -1.3901, -188.150009)">
    <text transform="matrix(1 0 0 1 66.9053 407.9722)" class="st0 st7" style="white-space: pre; font-family: FiraSansCondensed-ExtraBold; font-size: 20.7364px; line-height: 33.1782px; perspective-origin: 18.3438px 0px;">24.164</text>
  </g>
  <g transform="matrix(1, 0, 0, 1, -1.3901, -188.150009)">
    <text transform="matrix(1 0 0 1 1.0796 356.5649)" class="st8 st4" style="white-space: pre; font-family: FiraSansCondensed-Thin; font-size: 19.5857px; line-height: 31.3371px; perspective-origin: 45.7656px 0px;">Empleados base</text>
  </g>
  <rect x="1.4" y="365.8" width="62.3" height="19.1" transform="matrix(1, 0, 0, 1, -1.3901, -188.150009)"/>
  <rect x="1.4" y="390.8" class="st11" width="56" height="19.1" style="fill: rgb(0, 150, 64);" transform="matrix(1, 0, 0, 1, -1.3901, -188.150009)"/>
  <text transform="matrix(1, 0, 0, 1, 281.101593, 205.126877)" class="st0 st10" style="white-space: pre; font-family: FiraSansCondensed-ExtraBold; font-size: 20.8098px; line-height: 33.2957px; perspective-origin: 16.7656px 0px;">11,5%</text>
  <line class="st12" x1="0.4" y1="1.3" x2="332.4" y2="1.3" style="fill: none; stroke: rgb(0, 0, 0); stroke-linejoin: bevel; stroke-miterlimit: 10; stroke-width: 0.7342px;" transform="matrix(1, 0, 0, 1, -1.3901, -188.150009)"/>
  <line class="st12" x1="0.4" y1="327.1" x2="332.4" y2="327.1" style="fill: none; stroke: rgb(0, 0, 0); stroke-linejoin: bevel; stroke-miterlimit: 10; stroke-width: 0.7342px;" transform="matrix(1, 0, 0, 1, -1.3901, -188.150009)"/>
  <line class="st12" x1="365.7" y1="1.3" x2="709" y2="1.3" style="fill: none; stroke: rgb(0, 0, 0); stroke-linejoin: bevel; stroke-miterlimit: 10; stroke-width: 0.7342px;" transform="matrix(1, 0, 0, 1, -1.3901, -188.150009)"/>
  <g transform="matrix(1, 0, 0, 1, -1.3901, -188.150009)">
    <text transform="matrix(1 0 0 1 369.4409 155.0449)" class="st8 st4" style="white-space: pre; font-family: FiraSansCondensed-Thin; font-size: 19.5857px; line-height: 31.3371px; perspective-origin: 27.2031px 0px;">Directivos</text>
  </g>
  <g transform="matrix(1, 0, 0, 1, -1.3901, -188.150009)">
    <rect x="642.4" y="184.3" class="st13" width="64.1" height="25.8" style="fill: rgb(0, 150, 64); stroke: rgb(255, 255, 255); stroke-miterlimit: 10; stroke-width: 2.4482px;"/>
    <rect x="365.6" y="184.3" class="st14" width="276.8" height="25.8" style="stroke: rgb(255, 255, 255); stroke-miterlimit: 10; stroke-width: 2.4482px;"/>
  </g>
  <text transform="matrix(1, 0, 0, 1, 369.487305, -11.292108)" class="st0 st10" style="white-space: pre; font-family: FiraSansCondensed-ExtraBold; font-size: 20.8098px; line-height: 33.2957px; perspective-origin: 11.6719px 0px;">81,2</text>
  <g transform="matrix(1, 0, 0, 1, -1.3901, -188.150009)">
    <text transform="matrix(1 0 0 1 670.583 176.7969)" class="st0 st7" style="white-space: pre; font-family: FiraSansCondensed-ExtraBold; font-size: 20.7364px; line-height: 33.1782px; perspective-origin: 12.3125px 0px;">18,8</text>
  </g>
  <g transform="matrix(1, 0, 0, 1, -1.3901, -188.150009)">
    <text transform="matrix(1 0 0 1 369.4409 257.0278)" class="st8 st4" style="white-space: pre; font-family: FiraSansCondensed-Thin; font-size: 19.5857px; line-height: 31.3371px; perspective-origin: 57.7344px 0px;">Mandos intermedios</text>
  </g>
  <g transform="matrix(1, 0, 0, 1, -1.3901, -188.150009)">
    <rect x="609.4" y="287.2" class="st13" width="97.2" height="25.8" style="fill: rgb(0, 150, 64); stroke: rgb(255, 255, 255); stroke-miterlimit: 10; stroke-width: 2.4482px;"/>
    <rect x="365.6" y="287.2" class="st14" width="243.8" height="25.8" style="stroke: rgb(255, 255, 255); stroke-miterlimit: 10; stroke-width: 2.4482px;"/>
  </g>
  <text transform="matrix(1, 0, 0, 1, 369.487305, 90.799706)" class="st0 st10" style="white-space: pre; font-family: FiraSansCondensed-ExtraBold; font-size: 20.8098px; line-height: 33.2957px; perspective-origin: 11.3594px 0px;">71,5</text>
  <g transform="matrix(1, 0, 0, 1, -1.3901, -188.150009)">
    <text transform="matrix(1 0 0 1 670.5625 278.8906)" class="st0 st7" style="white-space: pre; font-family: FiraSansCondensed-ExtraBold; font-size: 20.7364px; line-height: 33.1782px; perspective-origin: 12.3125px 0px;">28,5</text>
  </g>
  <g transform="matrix(1, 0, 0, 1, -1.3901, -188.150009)">
    <text transform="matrix(1 0 0 1 369.4409 352.2808)" class="st8 st4" style="white-space: pre; font-family: FiraSansCondensed-Thin; font-size: 19.5857px; line-height: 31.3371px; perspective-origin: 45.7656px 0px;">Empleados base</text>
  </g>
  <g transform="matrix(1, 0, 0, 1, -1.3901, -188.150009)">
    <rect x="565.4" y="384.1" class="st13" width="141.1" height="25.8" style="fill: rgb(0, 150, 64); stroke: rgb(255, 255, 255); stroke-miterlimit: 10; stroke-width: 2.4482px;"/>
    <rect x="365.6" y="384.1" class="st14" width="199.8" height="25.8" style="stroke: rgb(255, 255, 255); stroke-miterlimit: 10; stroke-width: 2.4482px;"/>
  </g>
  <text transform="matrix(1, 0, 0, 1, 369.487305, 185.734299)" class="st0 st10" style="white-space: pre; font-family: FiraSansCondensed-ExtraBold; font-size: 20.8098px; line-height: 33.2957px; perspective-origin: 12.6719px 0px;">58,6</text>
  <g transform="matrix(1, 0, 0, 1, -1.3901, -188.150009)">
    <text transform="matrix(1 0 0 1 671.1221 373.8257)" class="st0 st7" style="white-space: pre; font-family: FiraSansCondensed-ExtraBold; font-size: 20.7364px; line-height: 33.1782px; perspective-origin: 11.4844px 0px;">41,4</text>
  </g>
  <path class="st6" d="M589.6,644.1c0,2.5,2,4.6,4.6,4.6s4.6-2,4.6-4.6c0-2.5-2-4.6-4.6-4.6S589.6,641.6,589.6,644.1z" style="fill: rgb(0, 158, 77);" transform="matrix(1, 0, 0, 1, -1.3901, -188.150009)"/>
  <path class="st6" d="M643.5,645.9c0,2.5,2,4.6,4.6,4.6s4.6-2,4.6-4.6s-2-4.6-4.6-4.6S643.5,643.4,643.5,645.9z" style="fill: rgb(0, 158, 77);" transform="matrix(1, 0, 0, 1, -1.3901, -188.150009)"/>
  <path class="st6" d="M697.4,684.8c0,2.5,2,4.6,4.6,4.6s4.6-2,4.6-4.6s-2-4.6-4.6-4.6S697.4,682.3,697.4,684.8z" style="fill: rgb(0, 158, 77);" transform="matrix(1, 0, 0, 1, -1.3901, -188.150009)"/>
  <polyline class="st15" points="1,748.7 54.9,621 108.8,632.6 162.7,742.9 216.7,611.6 270.6,620.2 324.5,579.9 378.4,606 &#10;&#9;432.4,617.1 486.3,595.5 540.2,623.2 594.1,644.5 648.1,645.9 702,684.8 " style="fill: none; stroke: rgb(0, 158, 77); stroke-miterlimit: 10; stroke-width: 1.2241px;" transform="matrix(1, 0, 0, 1, -1.3901, -188.150009)"/>
  <text transform="matrix(1, 0, 0, 1, -2.3847, 355.274078)" class="st5 st10" style="white-space: pre; font-family: FiraSansCondensed-ThinItalic; font-size: 20.8098px; line-height: 33.2957px; perspective-origin: 10.0312px 0px;">19,5</text>
  <text transform="matrix(1, 0, 0, 1, -2.3847, 584.436157)" class="st6 st0 st7" style="white-space: pre; fill: rgb(0, 158, 77); font-family: FiraSansCondensed-ExtraBold; font-size: 20.7364px; line-height: 33.1782px; perspective-origin: 11.2188px 0px;">11,9</text>
  <text transform="matrix(1, 0, 0, 1, 25.819899, 559.131592)" class="st5 st10" style="white-space: pre; font-family: FiraSansCondensed-ThinItalic; font-size: 20.8098px; line-height: 33.2957px; perspective-origin: 10.0312px 0px;">12,8</text>
  <text transform="matrix(1, 0, 0, 1, 34.441502, 417.599335)" class="st6 st0 st7" style="white-space: pre; fill: rgb(0, 158, 77); font-family: FiraSansCondensed-ExtraBold; font-size: 20.7364px; line-height: 33.1782px; perspective-origin: 11.5781px 0px;">17,0</text>
  <text transform="matrix(1, 0, 0, 1, 79.574303, 564.708679)" class="st5 st10" style="white-space: pre; font-family: FiraSansCondensed-ThinItalic; font-size: 20.8098px; line-height: 33.2957px; perspective-origin: 10.0781px 0px;">12,0</text>
  <text transform="matrix(1, 0, 0, 1, 91.745201, 430.276093)" class="st6 st0 st7" style="white-space: pre; fill: rgb(0, 158, 77); font-family: FiraSansCondensed-ExtraBold; font-size: 20.7364px; line-height: 33.1782px; perspective-origin: 12.0781px 0px;">16,5</text>
  <text transform="matrix(1, 0, 0, 1, 129.137299, 587.878601)" class="st5 st10" style="white-space: pre; font-family: FiraSansCondensed-ThinItalic; font-size: 20.8098px; line-height: 33.2957px; perspective-origin: 9px 0px;">11,7</text>
  <text transform="matrix(1, 0, 0, 1, 171.226593, 553.326904)" class="st6 st0 st7" style="white-space: pre; fill: rgb(0, 158, 77); font-family: FiraSansCondensed-ExtraBold; font-size: 20.7364px; line-height: 33.1782px; perspective-origin: 11.8438px 0px;">12,0</text>
  <text transform="matrix(1, 0, 0, 1, 184.4478, 590.2146)" class="st5 st10" style="white-space: pre; font-family: FiraSansCondensed-ThinItalic; font-size: 20.8098px; line-height: 33.2957px; perspective-origin: 9.375px 0px;">11,6</text>
  <text transform="matrix(1, 0, 0, 1, 193.299896, 411.26828)" class="st6 st0 st7" style="white-space: pre; fill: rgb(0, 158, 77); font-family: FiraSansCondensed-ExtraBold; font-size: 20.7364px; line-height: 33.1782px; perspective-origin: 11.2812px 0px;">17,3</text>
  <text transform="matrix(1, 0, 0, 1, 251.292496, 620.577759)" class="st5 st10" style="white-space: pre; font-family: FiraSansCondensed-ThinItalic; font-size: 20.8098px; line-height: 33.2957px; perspective-origin: 10.2656px 0px;">10,3</text>
  <text transform="matrix(1, 0, 0, 1, 250.610397, 456.64621)" class="st6 st0 st7" style="white-space: pre; fill: rgb(0, 158, 77); font-family: FiraSansCondensed-ExtraBold; font-size: 20.7364px; line-height: 33.1782px; perspective-origin: 11.5781px 0px;">17,0</text>
  <text transform="matrix(1, 0, 0, 1, 294.969788, 552.002563)" class="st5 st10" style="white-space: pre; font-family: FiraSansCondensed-ThinItalic; font-size: 20.8098px; line-height: 33.2957px; perspective-origin: 9px 0px;">11,7</text>
  <text transform="matrix(1, 0, 0, 1, 300.847198, 378.408905)" class="st6 st0 st7" style="white-space: pre; fill: rgb(0, 158, 77); font-family: FiraSansCondensed-ExtraBold; font-size: 20.7364px; line-height: 33.1782px; perspective-origin: 12.1875px 0px;">18,6</text>
  <text transform="matrix(1, 0, 0, 1, 355.670898, 530.274048)" class="st5 st10" style="white-space: pre; font-family: FiraSansCondensed-ThinItalic; font-size: 20.8098px; line-height: 33.2957px; perspective-origin: 9.70312px 0px;">12,5</text>
  <text transform="matrix(1, 0, 0, 1, 370.273499, 406.668732)" class="st6 st0 st7" style="white-space: pre; fill: rgb(0, 158, 77); font-family: FiraSansCondensed-ExtraBold; font-size: 20.7364px; line-height: 33.1782px; perspective-origin: 11.3906px 0px;">17,5</text>
  <text transform="matrix(1, 0, 0, 1, 416.92868, 586.233093)" class="st5 st10" style="white-space: pre; font-family: FiraSansCondensed-ThinItalic; font-size: 20.8098px; line-height: 33.2957px; perspective-origin: 9.51562px 0px;">11,8</text>
  <text transform="matrix(1, 0, 0, 1, 411.349579, 451.379608)" class="st6 st0 st7" style="white-space: pre; fill: rgb(0, 158, 77); font-family: FiraSansCondensed-ExtraBold; font-size: 20.7364px; line-height: 33.1782px; perspective-origin: 10.125px 0px;">17,1</text>
  <text transform="matrix(1, 0, 0, 1, 483.112305, 548.743896)" class="st5 st10" style="white-space: pre; font-family: FiraSansCondensed-ThinItalic; font-size: 20.8098px; line-height: 33.2957px; perspective-origin: 9.6875px 0px;">13,2</text>
  <text transform="matrix(1, 0, 0, 1, 466.201202, 394.11203)" class="st6 st0 st7" style="white-space: pre; fill: rgb(0, 158, 77); font-family: FiraSansCondensed-ExtraBold; font-size: 20.7364px; line-height: 33.1782px; perspective-origin: 12.3281px 0px;">18,0</text>
  <text transform="matrix(1, 0, 0, 1, 534.328735, 498.535919)" class="st5 st10" style="white-space: pre; font-family: FiraSansCondensed-ThinItalic; font-size: 20.8098px; line-height: 33.2957px; perspective-origin: 9.53125px 0px;">15,4</text>
  <text transform="matrix(1, 0, 0, 1, 528.749512, 423.522186)" class="st6 st0 st7" style="white-space: pre; fill: rgb(0, 158, 77); font-family: FiraSansCondensed-ExtraBold; font-size: 20.7364px; line-height: 33.1782px; perspective-origin: 12.0469px 0px;">16,9</text>
  <text transform="matrix(1, 0, 0, 1, 581.99762, 439.711578)" class="st5 st10" style="white-space: pre; font-family: FiraSansCondensed-ThinItalic; font-size: 20.8098px; line-height: 33.2957px; perspective-origin: 9.95312px 0px;">16,2</text>
  <text transform="matrix(1, 0, 0, 1, 568.129395, 476.854218)" class="st6 st0 st7" style="white-space: pre; fill: rgb(0, 158, 77); font-family: FiraSansCondensed-ExtraBold; font-size: 20.7364px; line-height: 33.1782px; perspective-origin: 10.8281px 0px;">16,1</text>
  <text transform="matrix(1, 0, 0, 1, 656.304199, 453.281891)" class="st5 st10" style="white-space: pre; font-family: FiraSansCondensed-ThinItalic; font-size: 20.8098px; line-height: 33.2957px; perspective-origin: 9.84375px 0px;">16,4</text>
  <text transform="matrix(1, 0, 0, 1, 617.080627, 483.240021)" class="st6 st0 st7" style="white-space: pre; fill: rgb(0, 158, 77); font-family: FiraSansCondensed-ExtraBold; font-size: 20.7364px; line-height: 33.1782px; perspective-origin: 11.8281px 0px;">15,9</text>
  <path class="st9" d="M1.2,556.8c0,2.5,2,4.6,4.6,4.6s4.6-2,4.6-4.6c0-2.5-2-4.6-4.6-4.6S1.2,554.3,1.2,556.8z" style="fill: rgb(119, 200, 210);" transform="matrix(1, 0, 0, 1, -1.3901, -188.150009)"/>
  <path class="st9" d="M50.3,724.6c0,2.5,2,4.6,4.6,4.6s4.6-2,4.6-4.6c0-2.5-2-4.6-4.6-4.6S50.3,722.1,50.3,724.6z" style="fill: rgb(119, 200, 210);" transform="matrix(1, 0, 0, 1, -1.3901, -188.150009)"/>
  <path class="st9" d="M104.3,729.2c0,2.5,2,4.6,4.6,4.6c2.5,0,4.6-2,4.6-4.6s-2-4.6-4.6-4.6C106.3,724.6,104.3,726.7,104.3,729.2z" style="fill: rgb(119, 200, 210);" transform="matrix(1, 0, 0, 1, -1.3901, -188.150009)"/>
  <path class="st9" d="M158.2,753c0,2.5,2,4.6,4.6,4.6s4.6-2,4.6-4.6c0-2.5-2-4.6-4.6-4.6S158.2,750.5,158.2,753z" style="fill: rgb(119, 200, 210);" transform="matrix(1, 0, 0, 1, -1.3901, -188.150009)"/>
  <path class="st9" d="M212.1,754.1c0,2.5,2,4.6,4.6,4.6s4.6-2,4.6-4.6s-2-4.6-4.6-4.6S212.1,751.5,212.1,754.1z" style="fill: rgb(119, 200, 210);" transform="matrix(1, 0, 0, 1, -1.3901, -188.150009)"/>
  <path class="st9" d="M319.9,753.6c0,2.5,2,4.6,4.6,4.6c2.5,0,4.6-2,4.6-4.6c0-2.5-2-4.6-4.6-4.6C322,749,319.9,751,319.9,753.6z" style="fill: rgb(119, 200, 210);" transform="matrix(1, 0, 0, 1, -1.3901, -188.150009)"/>
  <path class="st9" d="M373.9,732.8c0,2.5,2,4.6,4.6,4.6c2.5,0,4.6-2,4.6-4.6c0-2.5-2-4.6-4.6-4.6S373.9,730.2,373.9,732.8z" style="fill: rgb(119, 200, 210);" transform="matrix(1, 0, 0, 1, -1.3901, -188.150009)"/>
  <path class="st9" d="M427.8,750c0,2.5,2,4.6,4.6,4.6c2.5,0,4.6-2,4.6-4.6s-2-4.6-4.6-4.6S427.8,747.5,427.8,750z" style="fill: rgb(119, 200, 210);" transform="matrix(1, 0, 0, 1, -1.3901, -188.150009)"/>
  <path class="st9" d="M535.6,661.3c0,2.5,2,4.6,4.6,4.6s4.6-2,4.6-4.6c0-2.5-2-4.6-4.6-4.6S535.6,658.7,535.6,661.3z" style="fill: rgb(119, 200, 210);" transform="matrix(1, 0, 0, 1, -1.3901, -188.150009)"/>
  <path class="st9" d="M266,786c0,2.5,2,4.6,4.6,4.6c2.5,0,4.6-2,4.6-4.6c0-2.5-2-4.6-4.6-4.6C268.1,781.4,266,783.5,266,786z" style="fill: rgb(119, 200, 210);" transform="matrix(1, 0, 0, 1, -1.3901, -188.150009)"/>
  <path class="st9" d="M481.7,715c0,2.5,2,4.6,4.6,4.6c2.5,0,4.6-2,4.6-4.6c0-2.5-2-4.6-4.6-4.6C483.8,710.4,481.7,712.5,481.7,715z" style="fill: rgb(119, 200, 210);" transform="matrix(1, 0, 0, 1, -1.3901, -188.150009)"/>
  <path class="st9" d="M643.5,634.9c0,2.5,2,4.6,4.6,4.6s4.6-2,4.6-4.6s-2-4.6-4.6-4.6S643.5,632.4,643.5,634.9z" style="fill: rgb(119, 200, 210);" transform="matrix(1, 0, 0, 1, -1.3901, -188.150009)"/>
  <path class="st9" d="M697.4,575.6c0,2.5,2,4.6,4.6,4.6s4.6-2,4.6-4.6c0-2.5-2-4.6-4.6-4.6S697.4,573,697.4,575.6z" style="fill: rgb(119, 200, 210);" transform="matrix(1, 0, 0, 1, -1.3901, -188.150009)"/>
  <path class="st9" d="M589.6,640c0,2.5,2,4.6,4.6,4.6s4.6-2,4.6-4.6c0-2.5-2-4.6-4.6-4.6S589.6,637.4,589.6,640z" style="fill: rgb(119, 200, 210);" transform="matrix(1, 0, 0, 1, -1.3901, -188.150009)"/>
  <polyline class="st16" points="1,556.8 54.9,724.6 108.8,729.2 162.7,753 216.7,754.1 270.6,786 324.5,753.6 378.4,732.8 432.4,750 &#10;&#9;486.3,715 540.2,661.3 594.1,640 648.1,634.9 702,575.6 " style="fill: none; stroke: rgb(119, 200, 210); stroke-miterlimit: 10; stroke-width: 1.2241px;" transform="matrix(1, 0, 0, 1, -1.3901, -188.150009)"/>
  <line class="st17" x1="-1" y1="875" x2="709.8" y2="875" style="fill: none; stroke: rgb(0, 0, 0); stroke-miterlimit: 10; stroke-width: 0.7345px;" transform="matrix(1, 0, 0, 1, -1.3901, -188.150009)"/>
  <line class="st12" x1="0.4" y1="227" x2="332.4" y2="227" style="fill: none; stroke: rgb(0, 0, 0); stroke-linejoin: bevel; stroke-miterlimit: 10; stroke-width: 0.7342px;" transform="matrix(1, 0, 0, 1, -1.3901, -188.150009)"/>
  <line class="st2" x1="363.3" y1="327.1" x2="707.6" y2="327.1" style="fill: none; stroke: rgb(0, 0, 0); stroke-linejoin: bevel; stroke-miterlimit: 10; stroke-width: 0.7345px;" transform="matrix(1, 0, 0, 1, -1.3901, -188.150009)"/>
  <line class="st2" x1="363.3" y1="227" x2="707.6" y2="227" style="fill: none; stroke: rgb(0, 0, 0); stroke-linejoin: bevel; stroke-miterlimit: 10; stroke-width: 0.7345px;" transform="matrix(1, 0, 0, 1, -1.3901, -188.150009)"/>
</svg>