<?xml version="1.0" encoding="utf-8"?>
<svg viewBox="0 0 710 877.1" style="enable-background:new 0 0 710 877.1;" xmlns="http://www.w3.org/2000/svg">
  <defs>
    <style type="text/css">
	.st0{font-family:'FiraSansCondensed-ExtraBold';}
	.st1{font-size:19.5123px;}
	.st2{fill:none;stroke:#000000;stroke-width:0.7345;stroke-linejoin:bevel;stroke-miterlimit:10;}
	.st3{fill:none;}
	.st4{font-size:19.5857px;}
	.st5{font-family:'FiraSansCondensed-ThinItalic';}
	.st6{fill:#009E4D;}
	.st7{font-size:20.7364px;}
	.st8{font-family:'FiraSansCondensed-Thin';}
	.st9{fill:#77C8D2;}
	.st10{font-size:20.8098px;}
	.st11{fill:#009640;}
	.st12{fill:none;stroke:#000000;stroke-width:0.7342;stroke-linejoin:bevel;stroke-miterlimit:10;}
	.st13{fill:#009640;stroke:#FFFFFF;stroke-width:2.4482;stroke-miterlimit:10;}
	.st14{stroke:#FFFFFF;stroke-width:2.4482;stroke-miterlimit:10;}
	.st15{fill:none;stroke:#009E4D;stroke-width:1.2241;stroke-miterlimit:10;}
	.st16{fill:none;stroke:#77C8D2;stroke-width:1.2241;stroke-miterlimit:10;}
	.st17{fill:none;stroke:#000000;stroke-width:0.7345;stroke-miterlimit:10;}
</style>
  </defs>
  <text transform="matrix(1, 0, 0, 1, -0.9946, 856.99353)" class="st0 st1" style="white-space: pre;">2008</text>
  <text transform="matrix(1, 0, 0, 1, 48.024399, 856.99353)" class="st0 st1" style="white-space: pre;">2009</text>
  <text transform="matrix(1, 0, 0, 1, 154.226105, 856.99353)" class="st0 st1" style="white-space: pre;">2011</text>
  <text transform="matrix(1, 0, 0, 1, 262.054687, 856.99353)" class="st0 st1" style="white-space: pre;">2013</text>
  <text transform="matrix(1, 0, 0, 1, 374.779785, 856.99353)" class="st0 st1" style="white-space: pre;">2015</text>
  <text transform="matrix(1, 0, 0, 1, 480.977997, 856.99353)" class="st0 st1" style="white-space: pre;">2017</text>
  <text transform="matrix(1, 0, 0, 1, 589.625, 856.99353)" class="st0 st1" style="white-space: pre;">2019</text>
  <text transform="matrix(1, 0, 0, 1, 665.628906, 856.99353)" class="st0 st1" style="white-space: pre;">2021</text>
  <line class="st2" x1="271.1" y1="826" x2="271.1" y2="835.6"/>
  <line class="st2" x1="1.3" y1="826" x2="1.3" y2="835.6"/>
  <line class="st2" x1="54.1" y1="826" x2="54.1" y2="835.6"/>
  <line class="st2" x1="162.6" y1="826" x2="162.6" y2="835.6"/>
  <line class="st2" x1="379.6" y1="826" x2="379.6" y2="835.6"/>
  <line class="st2" x1="488.1" y1="826" x2="488.1" y2="835.6"/>
  <line class="st2" x1="596.6" y1="826" x2="596.6" y2="835.6"/>
  <line class="st2" x1="705.2" y1="826" x2="705.2" y2="835.6"/>
  <g>
    <rect x="1.1" y="18.3" class="st3" width="313.6" height="44.1"/>
    <text transform="matrix(1 0 0 1 1.1318 33.1626)" class="st0 st4" style="white-space: pre;">Diferencia retributiva por categoría </text>
    <text transform="matrix(1 0 0 1 1.1318 55.1626)" class="st0 st4" style="white-space: pre;">profesional en el 2021</text>
  </g>
  <g>
    <rect x="17.1" y="97" class="st3" width="74.7" height="21.6"/>
    <text transform="matrix(1 0 0 1 17.1035 111.4067)" class="st5 st4" style="white-space: pre;">Hombres</text>
  </g>
  <g>
    <rect x="113.3" y="97" class="st3" width="65.8" height="21.6"/>
    <text transform="matrix(1 0 0 1 113.3154 111.4067)" class="st5 st4" style="white-space: pre;">Mujeres</text>
  </g>
  <g>
    <rect x="1.1" y="67.6" class="st3" width="165.2" height="21.6"/>
    <text transform="matrix(1 0 0 1 1.1323 82.0283)" class="st5 st4" style="white-space: pre;">En euros</text>
  </g>
  <g>
    <rect x="2.9" y="431.4" class="st3" width="715" height="17.5"/>
    <text transform="matrix(1 0 0 1 2.9067 446.2928)" class="st0 st4" style="white-space: pre;">Evolución de las diferencias retributivas y presencia de la mujer en cargos directivos</text>
  </g>
  <path class="st6" d="M1.2,748.7c0,2.5,2,4.6,4.6,4.6s4.6-2,4.6-4.6c0-2.5-2-4.6-4.6-4.6S1.2,746.2,1.2,748.7z"/>
  <path class="st6" d="M50.3,621c0,2.5,2,4.6,4.6,4.6s4.6-2,4.6-4.6c0-2.5-2-4.6-4.6-4.6S50.3,618.5,50.3,621z"/>
  <path class="st6" d="M104.3,632.6c0,2.5,2,4.6,4.6,4.6c2.5,0,4.6-2,4.6-4.6s-2-4.6-4.6-4.6S104.3,630,104.3,632.6z"/>
  <path class="st6" d="M158.2,742.9c0,2.5,2,4.6,4.6,4.6s4.6-2,4.6-4.6s-2-4.6-4.6-4.6S158.2,740.4,158.2,742.9z"/>
  <path class="st6" d="M212.1,611.6c0,2.5,2,4.6,4.6,4.6s4.6-2,4.6-4.6s-2-4.6-4.6-4.6S212.1,609.1,212.1,611.6z"/>
  <path class="st6" d="M319.9,579.9c0,2.5,2,4.6,4.6,4.6c2.5,0,4.6-2,4.6-4.6s-2-4.6-4.6-4.6C322,575.3,319.9,577.4,319.9,579.9z"/>
  <path class="st6" d="M373.9,606c0,2.5,2,4.6,4.6,4.6c2.5,0,4.6-2,4.6-4.6s-2-4.6-4.6-4.6S373.9,603.5,373.9,606z"/>
  <path class="st6" d="M427.8,617.1c0,2.5,2,4.6,4.6,4.6c2.5,0,4.6-2,4.6-4.6c0-2.5-2-4.6-4.6-4.6 C429.8,612.6,427.8,614.6,427.8,617.1z"/>
  <path class="st6" d="M535.6,623.2c0,2.5,2,4.6,4.6,4.6s4.6-2,4.6-4.6c0-2.5-2-4.6-4.6-4.6S535.6,620.7,535.6,623.2z"/>
  <g>
    <text transform="matrix(1 0 0 1 669.1514 566.1165)" class="st0 st7" style="white-space: pre;">18,8</text>
  </g>
  <path class="st6" d="M266,620.2c0,2.5,2,4.6,4.6,4.6c2.5,0,4.6-2,4.6-4.6s-2-4.6-4.6-4.6C268.1,615.7,266,617.7,266,620.2z"/>
  <path class="st6" d="M481.7,595.5c0,2.5,2,4.6,4.6,4.6c2.5,0,4.6-2,4.6-4.6c0-2.5-2-4.6-4.6-4.6C483.8,590.9,481.7,593,481.7,595.5z "/>
  <text transform="matrix(1, 0, 0, 1, 669.69043, 710.590088)" class="st6 st0 st7" style="white-space: pre;">14,4</text>
  <path class="st6" d="M96.4,103.9c0,2.8,2.3,5,5,5c2.8,0,5-2.3,5-5c0-2.8-2.3-5-5-5C98.6,98.8,96.4,101.1,96.4,103.9z"/>
  <path d="M1.3,103.9c0,2.8,2.3,5,5,5c2.8,0,5-2.3,5-5c0-2.8-2.3-5-5-5C3.6,98.8,1.3,101.1,1.3,103.9z"/>
  <g>
    <rect x="17.1" y="465.5" class="st3" width="271.3" height="41.8"/>
    <text transform="matrix(1 0 0 1 17.1035 479.9061)" class="st8 st4" style="white-space: pre;">Porcentaje de presencia de la </text>
    <text transform="matrix(1 0 0 1 17.1035 503.4061)" class="st8 st4" style="white-space: pre;">mujer en cargos directivos</text>
  </g>
  <g>
    <rect x="327.7" y="465.5" class="st3" width="368.5" height="51.9"/>
    <text transform="matrix(1 0 0 1 327.7271 479.9056)" class="st8 st4" style="white-space: pre;">Porcentaje de diferencia salarial entre hombres</text>
    <text transform="matrix(1 0 0 1 327.7271 503.4056)" class="st8 st4" style="white-space: pre;">y mujeres directivas</text>
  </g>
  <path class="st6" d="M310.8,472.4c0,2.8,2.3,5,5,5c2.8,0,5-2.3,5-5c0-2.8-2.3-5-5-5C313,467.3,310.8,469.6,310.8,472.4z"/>
  <path class="st9" d="M1.3,472.4c0,2.8,2.3,5,5,5c2.8,0,5-2.3,5-5c0-2.8-2.3-5-5-5C3.6,467.3,1.3,469.6,1.3,472.4z"/>
  <g>
    <rect x="365.6" y="18.3" class="st3" width="286.9" height="45.3"/>
    <text transform="matrix(1 0 0 1 365.6001 33.1626)" class="st0 st4" style="white-space: pre;">Cuota de presencia por categoría </text>
    <text transform="matrix(1 0 0 1 365.6001 55.1626)" class="st0 st4" style="white-space: pre;">profesional en el 2021</text>
  </g>
  <g>
    <rect x="379.2" y="97" class="st3" width="74.7" height="21.6"/>
    <text transform="matrix(1 0 0 1 379.1929 111.4067)" class="st5 st4" style="white-space: pre;">Hombres</text>
  </g>
  <g>
    <rect x="482.7" y="97" class="st3" width="65.8" height="21.6"/>
    <text transform="matrix(1 0 0 1 482.7495 111.4067)" class="st5 st4" style="white-space: pre;">Mujeres</text>
  </g>
  <g>
    <rect x="365.6" y="67.6" class="st3" width="165.2" height="21.6"/>
    <text transform="matrix(1 0 0 1 365.6011 82.0283)" class="st5 st4" style="white-space: pre;">En euros</text>
  </g>
  <path class="st6" d="M465.8,103.9c0,2.8,2.3,5,5,5c2.8,0,5-2.3,5-5c0-2.8-2.3-5-5-5C468.1,98.8,465.8,101.1,465.8,103.9z"/>
  <path d="M365.6,103.9c0,2.8,2.3,5,5,5c2.8,0,5-2.3,5-5c0-2.8-2.3-5-5-5C367.9,98.8,365.6,101.1,365.6,103.9z"/>
  <text transform="matrix(1, 0, 0, 1, 214.042496, 181.1474)" class="st0 st10" style="white-space: pre;">87.626</text>
  <g>
    <text transform="matrix(1 0 0 1 184.3916 206.4526)" class="st0 st7" style="white-space: pre;">76.610</text>
  </g>
  <g>
    <text transform="matrix(1 0 0 1 1.0796 155.0449)" class="st8 st4" style="white-space: pre;">Directivos</text>
  </g>
  <rect x="1.4" y="164.3" width="206.6" height="19.1"/>
  <rect x="1.4" y="189.3" class="st11" width="173.8" height="19.1"/>
  <text transform="matrix(1, 0, 0, 1, 282.491699, 194.204102)" class="st0 st10" style="white-space: pre;">14,4%</text>
  <text transform="matrix(1, 0, 0, 1, 116.166496, 283.131287)" class="st0 st10" style="white-space: pre;">44.444</text>
  <g>
    <text transform="matrix(1 0 0 1 102.0171 308.4365)" class="st0 st7" style="white-space: pre;">40.042</text>
  </g>
  <g>
    <text transform="matrix(1 0 0 1 1.0796 257.0278)" class="st8 st4" style="white-space: pre;">Mandos intermedios</text>
  </g>
  <rect x="1.4" y="266.3" width="106.8" height="19.1"/>
  <rect x="1.4" y="291.3" class="st11" width="95.3" height="19.1"/>
  <text transform="matrix(1, 0, 0, 1, 282.491699, 292.924286)" class="st0 st10" style="white-space: pre;">11,0%</text>
  <text transform="matrix(1, 0, 0, 1, 67.942902, 382.668488)" class="st0 st10" style="white-space: pre;">26.932</text>
  <g>
    <text transform="matrix(1 0 0 1 66.9053 407.9722)" class="st0 st7" style="white-space: pre;">24.164</text>
  </g>
  <g>
    <text transform="matrix(1 0 0 1 1.0796 356.5649)" class="st8 st4" style="white-space: pre;">Empleados base</text>
  </g>
  <rect x="1.4" y="365.8" width="62.3" height="19.1"/>
  <rect x="1.4" y="390.8" class="st11" width="56" height="19.1"/>
  <text transform="matrix(1, 0, 0, 1, 282.491699, 393.276886)" class="st0 st10" style="white-space: pre;">11,5%</text>
  <line class="st12" x1="0.4" y1="1.3" x2="332.4" y2="1.3"/>
  <line class="st12" x1="0.4" y1="327.1" x2="332.4" y2="327.1"/>
  <line class="st12" x1="365.7" y1="1.3" x2="709" y2="1.3"/>
  <g>
    <text transform="matrix(1 0 0 1 369.4409 155.0449)" class="st8 st4" style="white-space: pre;">Directivos</text>
  </g>
  <g>
    <rect x="642.4" y="184.3" class="st13" width="64.1" height="25.8"/>
    <rect x="365.6" y="184.3" class="st14" width="276.8" height="25.8"/>
  </g>
  <text transform="matrix(1, 0, 0, 1, 370.877411, 176.857895)" class="st0 st10" style="white-space: pre;">81,2</text>
  <g>
    <text transform="matrix(1 0 0 1 670.583 176.7969)" class="st0 st7" style="white-space: pre;">18,8</text>
  </g>
  <g>
    <text transform="matrix(1 0 0 1 369.4409 257.0278)" class="st8 st4" style="white-space: pre;">Mandos intermedios</text>
  </g>
  <g>
    <rect x="609.4" y="287.2" class="st13" width="97.2" height="25.8"/>
    <rect x="365.6" y="287.2" class="st14" width="243.8" height="25.8"/>
  </g>
  <text transform="matrix(1, 0, 0, 1, 370.877411, 278.949707)" class="st0 st10" style="white-space: pre;">71,5</text>
  <g>
    <text transform="matrix(1 0 0 1 670.5625 278.8906)" class="st0 st7" style="white-space: pre;">28,5</text>
  </g>
  <g>
    <text transform="matrix(1 0 0 1 369.4409 352.2808)" class="st8 st4" style="white-space: pre;">Empleados base</text>
  </g>
  <g>
    <rect x="565.4" y="384.1" class="st13" width="141.1" height="25.8"/>
    <rect x="365.6" y="384.1" class="st14" width="199.8" height="25.8"/>
  </g>
  <text transform="matrix(1, 0, 0, 1, 370.877411, 373.884308)" class="st0 st10" style="white-space: pre;">58,6</text>
  <g>
    <text transform="matrix(1 0 0 1 671.1221 373.8257)" class="st0 st7" style="white-space: pre;">41,4</text>
  </g>
  <path class="st6" d="M589.6,644.1c0,2.5,2,4.6,4.6,4.6s4.6-2,4.6-4.6c0-2.5-2-4.6-4.6-4.6S589.6,641.6,589.6,644.1z"/>
  <path class="st6" d="M643.5,645.9c0,2.5,2,4.6,4.6,4.6s4.6-2,4.6-4.6s-2-4.6-4.6-4.6S643.5,643.4,643.5,645.9z"/>
  <path class="st6" d="M697.4,684.8c0,2.5,2,4.6,4.6,4.6s4.6-2,4.6-4.6s-2-4.6-4.6-4.6S697.4,682.3,697.4,684.8z"/>
  <polyline class="st15" points="1,748.7 54.9,621 108.8,632.6 162.7,742.9 216.7,611.6 270.6,620.2 324.5,579.9 378.4,606 &#10;&#9;432.4,617.1 486.3,595.5 540.2,623.2 594.1,644.5 648.1,645.9 702,684.8 "/>
  <text transform="matrix(1, 0, 0, 1, -0.9946, 543.424072)" class="st5 st10" style="white-space: pre;">19,5</text>
  <text transform="matrix(1, 0, 0, 1, -0.9946, 772.586182)" class="st6 st0 st7" style="white-space: pre;">11,9</text>
  <text transform="matrix(1, 0, 0, 1, 27.209999, 747.281616)" class="st5 st10" style="white-space: pre;">12,8</text>
  <text transform="matrix(1, 0, 0, 1, 35.8316, 605.749329)" class="st6 st0 st7" style="white-space: pre;">17,0</text>
  <text transform="matrix(1, 0, 0, 1, 80.964401, 752.858704)" class="st5 st10" style="white-space: pre;">12,0</text>
  <text transform="matrix(1, 0, 0, 1, 93.1353, 618.426086)" class="st6 st0 st7" style="white-space: pre;">16,5</text>
  <text transform="matrix(1, 0, 0, 1, 130.527405, 776.028625)" class="st5 st10" style="white-space: pre;">11,7</text>
  <text transform="matrix(1, 0, 0, 1, 172.616699, 741.476929)" class="st6 st0 st7" style="white-space: pre;">12,0</text>
  <text transform="matrix(1, 0, 0, 1, 185.837906, 778.364624)" class="st5 st10" style="white-space: pre;">11,6</text>
  <text transform="matrix(1, 0, 0, 1, 194.690002, 599.418274)" class="st6 st0 st7" style="white-space: pre;">17,3</text>
  <text transform="matrix(1, 0, 0, 1, 252.682602, 808.727783)" class="st5 st10" style="white-space: pre;">10,3</text>
  <text transform="matrix(1, 0, 0, 1, 252.000504, 644.796204)" class="st6 st0 st7" style="white-space: pre;">17,0</text>
  <text transform="matrix(1, 0, 0, 1, 296.359894, 740.152588)" class="st5 st10" style="white-space: pre;">11,7</text>
  <text transform="matrix(1, 0, 0, 1, 302.237305, 566.558899)" class="st6 st0 st7" style="white-space: pre;">18,6</text>
  <text transform="matrix(1, 0, 0, 1, 357.061005, 718.424072)" class="st5 st10" style="white-space: pre;">12,5</text>
  <text transform="matrix(1, 0, 0, 1, 371.663605, 594.818726)" class="st6 st0 st7" style="white-space: pre;">17,5</text>
  <text transform="matrix(1, 0, 0, 1, 418.318787, 774.383118)" class="st5 st10" style="white-space: pre;">11,8</text>
  <text transform="matrix(1, 0, 0, 1, 412.739685, 639.529602)" class="st6 st0 st7" style="white-space: pre;">17,1</text>
  <text transform="matrix(1, 0, 0, 1, 484.502411, 736.893921)" class="st5 st10" style="white-space: pre;">13,2</text>
  <text transform="matrix(1, 0, 0, 1, 467.591309, 582.262024)" class="st6 st0 st7" style="white-space: pre;">18,0</text>
  <text transform="matrix(1, 0, 0, 1, 535.718811, 686.685913)" class="st5 st10" style="white-space: pre;">15,4</text>
  <text transform="matrix(1, 0, 0, 1, 530.139587, 611.67218)" class="st6 st0 st7" style="white-space: pre;">16,9</text>
  <text transform="matrix(1, 0, 0, 1, 583.387695, 627.861572)" class="st5 st10" style="white-space: pre;">16,2</text>
  <text transform="matrix(1, 0, 0, 1, 569.51947, 665.004211)" class="st6 st0 st7" style="white-space: pre;">16,1</text>
  <text transform="matrix(1, 0, 0, 1, 657.694275, 641.431885)" class="st5 st10" style="white-space: pre;">16,4</text>
  <text transform="matrix(1, 0, 0, 1, 618.470703, 671.390015)" class="st6 st0 st7" style="white-space: pre;">15,9</text>
  <path class="st9" d="M1.2,556.8c0,2.5,2,4.6,4.6,4.6s4.6-2,4.6-4.6c0-2.5-2-4.6-4.6-4.6S1.2,554.3,1.2,556.8z"/>
  <path class="st9" d="M50.3,724.6c0,2.5,2,4.6,4.6,4.6s4.6-2,4.6-4.6c0-2.5-2-4.6-4.6-4.6S50.3,722.1,50.3,724.6z"/>
  <path class="st9" d="M104.3,729.2c0,2.5,2,4.6,4.6,4.6c2.5,0,4.6-2,4.6-4.6s-2-4.6-4.6-4.6C106.3,724.6,104.3,726.7,104.3,729.2z"/>
  <path class="st9" d="M158.2,753c0,2.5,2,4.6,4.6,4.6s4.6-2,4.6-4.6c0-2.5-2-4.6-4.6-4.6S158.2,750.5,158.2,753z"/>
  <path class="st9" d="M212.1,754.1c0,2.5,2,4.6,4.6,4.6s4.6-2,4.6-4.6s-2-4.6-4.6-4.6S212.1,751.5,212.1,754.1z"/>
  <path class="st9" d="M319.9,753.6c0,2.5,2,4.6,4.6,4.6c2.5,0,4.6-2,4.6-4.6c0-2.5-2-4.6-4.6-4.6C322,749,319.9,751,319.9,753.6z"/>
  <path class="st9" d="M373.9,732.8c0,2.5,2,4.6,4.6,4.6c2.5,0,4.6-2,4.6-4.6c0-2.5-2-4.6-4.6-4.6S373.9,730.2,373.9,732.8z"/>
  <path class="st9" d="M427.8,750c0,2.5,2,4.6,4.6,4.6c2.5,0,4.6-2,4.6-4.6s-2-4.6-4.6-4.6S427.8,747.5,427.8,750z"/>
  <path class="st9" d="M535.6,661.3c0,2.5,2,4.6,4.6,4.6s4.6-2,4.6-4.6c0-2.5-2-4.6-4.6-4.6S535.6,658.7,535.6,661.3z"/>
  <path class="st9" d="M266,786c0,2.5,2,4.6,4.6,4.6c2.5,0,4.6-2,4.6-4.6c0-2.5-2-4.6-4.6-4.6C268.1,781.4,266,783.5,266,786z"/>
  <path class="st9" d="M481.7,715c0,2.5,2,4.6,4.6,4.6c2.5,0,4.6-2,4.6-4.6c0-2.5-2-4.6-4.6-4.6C483.8,710.4,481.7,712.5,481.7,715z"/>
  <path class="st9" d="M643.5,634.9c0,2.5,2,4.6,4.6,4.6s4.6-2,4.6-4.6s-2-4.6-4.6-4.6S643.5,632.4,643.5,634.9z"/>
  <path class="st9" d="M697.4,575.6c0,2.5,2,4.6,4.6,4.6s4.6-2,4.6-4.6c0-2.5-2-4.6-4.6-4.6S697.4,573,697.4,575.6z"/>
  <path class="st9" d="M589.6,640c0,2.5,2,4.6,4.6,4.6s4.6-2,4.6-4.6c0-2.5-2-4.6-4.6-4.6S589.6,637.4,589.6,640z"/>
  <polyline class="st16" points="1,556.8 54.9,724.6 108.8,729.2 162.7,753 216.7,754.1 270.6,786 324.5,753.6 378.4,732.8 432.4,750 &#10;&#9;486.3,715 540.2,661.3 594.1,640 648.1,634.9 702,575.6 "/>
  <line class="st17" x1="-1" y1="875" x2="709.8" y2="875"/>
  <line class="st12" x1="0.4" y1="227" x2="332.4" y2="227"/>
  <line class="st2" x1="363.3" y1="327.1" x2="707.6" y2="327.1"/>
  <line class="st2" x1="363.3" y1="227" x2="707.6" y2="227"/>
</svg>