<svg width="710" height="878" viewBox="0 0 710 878" fill="none" xmlns="http://www.w3.org/2000/svg">
<g id="provas3 1" clip-path="url(#clip0)">
<text id="2008" fill="black" xml:space="preserve" style="white-space: pre" font-family="Fira Sans Condensed" font-size="19.5123" font-weight="800" letter-spacing="0em"><tspan x="-0.994629" y="855.518">2008</tspan></text>
<text id="2009" fill="black" xml:space="preserve" style="white-space: pre" font-family="Fira Sans Condensed" font-size="19.5123" font-weight="800" letter-spacing="0em"><tspan x="48.0244" y="855.518">2009</tspan></text>
<text id="2011" fill="black" xml:space="preserve" style="white-space: pre" font-family="Fira Sans Condensed" font-size="19.5123" font-weight="800" letter-spacing="0em"><tspan x="154.226" y="855.518">2011</tspan></text>
<text id="2013" fill="black" xml:space="preserve" style="white-space: pre" font-family="Fira Sans Condensed" font-size="19.5123" font-weight="800" letter-spacing="0em"><tspan x="262.055" y="855.518">2013</tspan></text>
<text id="2015" fill="black" xml:space="preserve" style="white-space: pre" font-family="Fira Sans Condensed" font-size="19.5123" font-weight="800" letter-spacing="0em"><tspan x="374.78" y="855.518">2015</tspan></text>
<text id="2017" fill="black" xml:space="preserve" style="white-space: pre" font-family="Fira Sans Condensed" font-size="19.5123" font-weight="800" letter-spacing="0em"><tspan x="480.978" y="855.518">2017</tspan></text>
<text id="2019" fill="black" xml:space="preserve" style="white-space: pre" font-family="Fira Sans Condensed" font-size="19.5123" font-weight="800" letter-spacing="0em"><tspan x="589.625" y="855.518">2019</tspan></text>
<text id="2021" fill="black" xml:space="preserve" style="white-space: pre" font-family="Fira Sans Condensed" font-size="19.5123" font-weight="800" letter-spacing="0em"><tspan x="665.629" y="855.518">2021</tspan></text>
<path id="Vector" d="M271.1 826V835.6" stroke="black" stroke-width="0.7345" stroke-miterlimit="10" stroke-linejoin="bevel"/>
<path id="Vector_2" d="M1.29999 826V835.6" stroke="black" stroke-width="0.7345" stroke-miterlimit="10" stroke-linejoin="bevel"/>
<path id="Vector_3" d="M54.1 826V835.6" stroke="black" stroke-width="0.7345" stroke-miterlimit="10" stroke-linejoin="bevel"/>
<path id="Vector_4" d="M162.6 826V835.6" stroke="black" stroke-width="0.7345" stroke-miterlimit="10" stroke-linejoin="bevel"/>
<path id="Vector_5" d="M379.6 826V835.6" stroke="black" stroke-width="0.7345" stroke-miterlimit="10" stroke-linejoin="bevel"/>
<path id="Vector_6" d="M488.1 826V835.6" stroke="black" stroke-width="0.7345" stroke-miterlimit="10" stroke-linejoin="bevel"/>
<path id="Vector_7" d="M596.6 826V835.6" stroke="black" stroke-width="0.7345" stroke-miterlimit="10" stroke-linejoin="bevel"/>
<path id="Vector_8" d="M705.2 826V835.6" stroke="black" stroke-width="0.7345" stroke-miterlimit="10" stroke-linejoin="bevel"/>
<g id="Group">
<text id="Diferencia retributiva por categor&#195;&#173;a" fill="black" xml:space="preserve" style="white-space: pre" font-family="Fira Sans Condensed" font-size="19.5857" font-weight="800" letter-spacing="0em"><tspan x="1.13177" y="32.1381">Diferencia retributiva por categor&#xed;a </tspan></text>
<text id="profesional en el 2021" fill="black" xml:space="preserve" style="white-space: pre" font-family="Fira Sans Condensed" font-size="19.5857" font-weight="800" letter-spacing="0em"><tspan x="1.13177" y="54.1381">profesional en el 2021</tspan></text>
</g>
<g id="Group_2">
<text id="Hombres" fill="black" xml:space="preserve" style="white-space: pre" font-family="Fira Sans Condensed" font-size="19.5857" font-style="italic" font-weight="200" letter-spacing="0em"><tspan x="17.1035" y="110.382">Hombres</tspan></text>
</g>
<g id="Group_3">
<text id="Mujeres" fill="black" xml:space="preserve" style="white-space: pre" font-family="Fira Sans Condensed" font-size="19.5857" font-style="italic" font-weight="200" letter-spacing="0em"><tspan x="113.315" y="110.382">Mujeres</tspan></text>
</g>
<g id="Group_4">
<text id="En euros" fill="black" xml:space="preserve" style="white-space: pre" font-family="Fira Sans Condensed" font-size="19.5857" font-style="italic" font-weight="200" letter-spacing="0em"><tspan x="1.13226" y="81.0038">En euros</tspan></text>
</g>
<g id="Group_5">
<text id="Evoluci&#195;&#179;n de las diferencias retributivas y presencia de la mujer en cargos directivos" fill="black" xml:space="preserve" style="white-space: pre" font-family="Fira Sans Condensed" font-size="19.5857" font-weight="800" letter-spacing="0em"><tspan x="2.90674" y="445.268">Evoluci&#xf3;n de las diferencias retributivas y presencia de la mujer en cargos directivos</tspan></text>
</g>
<path id="Vector_9" d="M1.20001 748.7C1.20001 751.2 3.20001 753.3 5.80001 753.3C8.40001 753.3 10.4 751.3 10.4 748.7C10.4 746.2 8.40001 744.1 5.80001 744.1C3.20001 744.1 1.20001 746.2 1.20001 748.7Z" fill="#009E4D"/>
<path id="Vector_10" d="M50.3 621C50.3 623.5 52.3 625.6 54.9 625.6C57.5 625.6 59.5 623.6 59.5 621C59.5 618.5 57.5 616.4 54.9 616.4C52.3 616.4 50.3 618.5 50.3 621Z" fill="#009E4D"/>
<path id="Vector_11" d="M104.3 632.6C104.3 635.1 106.3 637.2 108.9 637.2C111.4 637.2 113.5 635.2 113.5 632.6C113.5 630 111.5 628 108.9 628C106.3 628 104.3 630 104.3 632.6Z" fill="#009E4D"/>
<path id="Vector_12" d="M158.2 742.9C158.2 745.4 160.2 747.5 162.8 747.5C165.4 747.5 167.4 745.5 167.4 742.9C167.4 740.3 165.4 738.3 162.8 738.3C160.2 738.3 158.2 740.4 158.2 742.9Z" fill="#009E4D"/>
<path id="Vector_13" d="M212.1 611.6C212.1 614.1 214.1 616.2 216.7 616.2C219.3 616.2 221.3 614.2 221.3 611.6C221.3 609 219.3 607 216.7 607C214.1 607 212.1 609.1 212.1 611.6Z" fill="#009E4D"/>
<path id="Vector_14" d="M319.9 579.9C319.9 582.4 321.9 584.5 324.5 584.5C327 584.5 329.1 582.5 329.1 579.9C329.1 577.3 327.1 575.3 324.5 575.3C322 575.3 319.9 577.4 319.9 579.9Z" fill="#009E4D"/>
<path id="Vector_15" d="M373.9 606C373.9 608.5 375.9 610.6 378.5 610.6C381 610.6 383.1 608.6 383.1 606C383.1 603.4 381.1 601.4 378.5 601.4C375.9 601.4 373.9 603.5 373.9 606Z" fill="#009E4D"/>
<path id="Vector_16" d="M427.8 617.1C427.8 619.6 429.8 621.7 432.4 621.7C434.9 621.7 437 619.7 437 617.1C437 614.6 435 612.5 432.4 612.5C429.8 612.6 427.8 614.6 427.8 617.1Z" fill="#009E4D"/>
<path id="Vector_17" d="M535.6 623.2C535.6 625.7 537.6 627.8 540.2 627.8C542.8 627.8 544.8 625.8 544.8 623.2C544.8 620.7 542.8 618.6 540.2 618.6C537.6 618.6 535.6 620.7 535.6 623.2Z" fill="#009E4D"/>
<g id="Group_6">
<text id="18,8" fill="black" xml:space="preserve" style="white-space: pre" font-family="Fira Sans Condensed" font-size="20.7364" font-weight="800" letter-spacing="0em"><tspan x="669.151" y="564.827">18,8</tspan></text>
</g>
<path id="Vector_18" d="M266 620.2C266 622.7 268 624.8 270.6 624.8C273.1 624.8 275.2 622.8 275.2 620.2C275.2 617.6 273.2 615.6 270.6 615.6C268.1 615.7 266 617.7 266 620.2Z" fill="#009E4D"/>
<path id="Vector_19" d="M481.7 595.5C481.7 598 483.7 600.1 486.3 600.1C488.8 600.1 490.9 598.1 490.9 595.5C490.9 593 488.9 590.9 486.3 590.9C483.8 590.9 481.7 593 481.7 595.5Z" fill="#009E4D"/>
<text id="14,4" fill="#009E4D" xml:space="preserve" style="white-space: pre" font-family="Fira Sans Condensed" font-size="20.7364" font-weight="800" letter-spacing="0em"><tspan x="669.69" y="709.3">14,4</tspan></text>
<path id="Vector_20" d="M96.4 103.9C96.4 106.7 98.7 108.9 101.4 108.9C104.2 108.9 106.4 106.6 106.4 103.9C106.4 101.1 104.1 98.9 101.4 98.9C98.6 98.8 96.4 101.1 96.4 103.9Z" fill="#009E4D"/>
<path id="Vector_21" d="M1.29999 103.9C1.29999 106.7 3.59999 108.9 6.29999 108.9C9.09999 108.9 11.3 106.6 11.3 103.9C11.3 101.1 8.99999 98.9 6.29999 98.9C3.59999 98.8 1.29999 101.1 1.29999 103.9Z" fill="black"/>
<g id="Group_7">
<text id="Porcentaje de presencia de la" fill="black" xml:space="preserve" style="white-space: pre" font-family="Fira Sans Condensed" font-size="19.5857" font-weight="200" letter-spacing="0em"><tspan x="17.1035" y="478.882">Porcentaje de presencia de la </tspan></text>
<text id="mujer en cargos directivos" fill="black" xml:space="preserve" style="white-space: pre" font-family="Fira Sans Condensed" font-size="19.5857" font-weight="200" letter-spacing="0em"><tspan x="17.1035" y="502.382">mujer en cargos directivos</tspan></text>
</g>
<g id="Group_8">
<text id="Porcentaje de diferencia salarial entre hombres" fill="black" xml:space="preserve" style="white-space: pre" font-family="Fira Sans Condensed" font-size="19.5857" font-weight="200" letter-spacing="0em"><tspan x="327.727" y="478.881">Porcentaje de diferencia salarial entre hombres</tspan></text>
<text id="y mujeres directivas" fill="black" xml:space="preserve" style="white-space: pre" font-family="Fira Sans Condensed" font-size="19.5857" font-weight="200" letter-spacing="0em"><tspan x="327.727" y="502.381">y mujeres directivas</tspan></text>
</g>
<path id="Vector_22" d="M310.8 472.4C310.8 475.2 313.1 477.4 315.8 477.4C318.6 477.4 320.8 475.1 320.8 472.4C320.8 469.6 318.5 467.4 315.8 467.4C313 467.3 310.8 469.6 310.8 472.4Z" fill="#009E4D"/>
<path id="Vector_23" d="M1.29999 472.4C1.29999 475.2 3.59999 477.4 6.29999 477.4C9.09999 477.4 11.3 475.1 11.3 472.4C11.3 469.6 8.99999 467.4 6.29999 467.4C3.59999 467.3 1.29999 469.6 1.29999 472.4Z" fill="#77C8D2"/>
<g id="Group_9">
<text id="Cuota de presencia por categor&#195;&#173;a" fill="black" xml:space="preserve" style="white-space: pre" font-family="Fira Sans Condensed" font-size="19.5857" font-weight="800" letter-spacing="0em"><tspan x="365.6" y="32.1381">Cuota de presencia por categor&#xed;a </tspan></text>
<text id="profesional en el 2021_2" fill="black" xml:space="preserve" style="white-space: pre" font-family="Fira Sans Condensed" font-size="19.5857" font-weight="800" letter-spacing="0em"><tspan x="365.6" y="54.1381">profesional en el 2021</tspan></text>
</g>
<g id="Group_10">
<text id="Hombres_2" fill="black" xml:space="preserve" style="white-space: pre" font-family="Fira Sans Condensed" font-size="19.5857" font-style="italic" font-weight="200" letter-spacing="0em"><tspan x="379.193" y="110.382">Hombres</tspan></text>
</g>
<g id="Group_11">
<text id="Mujeres_2" fill="black" xml:space="preserve" style="white-space: pre" font-family="Fira Sans Condensed" font-size="19.5857" font-style="italic" font-weight="200" letter-spacing="0em"><tspan x="482.75" y="110.382">Mujeres</tspan></text>
</g>
<g id="Group_12">
<text id="En euros_2" fill="black" xml:space="preserve" style="white-space: pre" font-family="Fira Sans Condensed" font-size="19.5857" font-style="italic" font-weight="200" letter-spacing="0em"><tspan x="365.601" y="81.0038">En euros</tspan></text>
</g>
<path id="Vector_24" d="M465.8 103.9C465.8 106.7 468.1 108.9 470.8 108.9C473.6 108.9 475.8 106.6 475.8 103.9C475.8 101.1 473.5 98.9 470.8 98.9C468.1 98.8 465.8 101.1 465.8 103.9Z" fill="#009E4D"/>
<path id="Vector_25" d="M365.6 103.9C365.6 106.7 367.9 108.9 370.6 108.9C373.4 108.9 375.6 106.6 375.6 103.9C375.6 101.1 373.3 98.9 370.6 98.9C367.9 98.8 365.6 101.1 365.6 103.9Z" fill="black"/>
<text id="87.626" fill="black" xml:space="preserve" style="white-space: pre" font-family="Fira Sans Condensed" font-size="20.8098" font-weight="800" letter-spacing="0em"><tspan x="214.042" y="179.809">87.626</tspan></text>
<g id="Group_13">
<text id="76.610" fill="black" xml:space="preserve" style="white-space: pre" font-family="Fira Sans Condensed" font-size="20.7364" font-weight="800" letter-spacing="0em"><tspan x="184.392" y="205.163">76.610</tspan></text>
</g>
<g id="Group_14">
<text id="Directivos" fill="black" xml:space="preserve" style="white-space: pre" font-family="Fira Sans Condensed" font-size="19.5857" font-weight="200" letter-spacing="0em"><tspan x="1.07959" y="154.02">Directivos</tspan></text>
</g>
<path id="Vector_26" d="M208 164.3H1.40002V183.4H208V164.3Z" fill="black"/>
<path id="Vector_27" d="M175.2 189.3H1.40002V208.4H175.2V189.3Z" fill="#009640"/>
<text id="14,4%" fill="black" xml:space="preserve" style="white-space: pre" font-family="Fira Sans Condensed" font-size="20.8098" font-weight="800" letter-spacing="0em"><tspan x="282.492" y="192.866">14,4%</tspan></text>
<text id="44.444" fill="black" xml:space="preserve" style="white-space: pre" font-family="Fira Sans Condensed" font-size="20.8098" font-weight="800" letter-spacing="0em"><tspan x="116.167" y="281.793">44.444</tspan></text>
<g id="Group_15">
<text id="40.042" fill="black" xml:space="preserve" style="white-space: pre" font-family="Fira Sans Condensed" font-size="20.7364" font-weight="800" letter-spacing="0em"><tspan x="102.017" y="307.147">40.042</tspan></text>
</g>
<g id="Group_16">
<text id="Mandos intermedios" fill="black" xml:space="preserve" style="white-space: pre" font-family="Fira Sans Condensed" font-size="19.5857" font-weight="200" letter-spacing="0em"><tspan x="1.07959" y="256.003">Mandos intermedios</tspan></text>
</g>
<path id="Vector_28" d="M108.2 266.3H1.40002V285.4H108.2V266.3Z" fill="black"/>
<path id="Vector_29" d="M96.7 291.3H1.40002V310.4H96.7V291.3Z" fill="#009640"/>
<text id="11,0%" fill="black" xml:space="preserve" style="white-space: pre" font-family="Fira Sans Condensed" font-size="20.8098" font-weight="800" letter-spacing="0em"><tspan x="282.492" y="291.586">11,0%</tspan></text>
<text id="26.932" fill="black" xml:space="preserve" style="white-space: pre" font-family="Fira Sans Condensed" font-size="20.8098" font-weight="800" letter-spacing="0em"><tspan x="67.9429" y="381.33">26.932</tspan></text>
<g id="Group_17">
<text id="24.164" fill="black" xml:space="preserve" style="white-space: pre" font-family="Fira Sans Condensed" font-size="20.7364" font-weight="800" letter-spacing="0em"><tspan x="66.9053" y="406.683">24.164</tspan></text>
</g>
<g id="Group_18">
<text id="Empleados base" fill="black" xml:space="preserve" style="white-space: pre" font-family="Fira Sans Condensed" font-size="19.5857" font-weight="200" letter-spacing="0em"><tspan x="1.07959" y="355.54">Empleados base</tspan></text>
</g>
<path id="Vector_30" d="M63.7 365.8H1.40002V384.9H63.7V365.8Z" fill="black"/>
<path id="Vector_31" d="M57.4 390.8H1.40002V409.9H57.4V390.8Z" fill="#009640"/>
<text id="11,5%" fill="black" xml:space="preserve" style="white-space: pre" font-family="Fira Sans Condensed" font-size="20.8098" font-weight="800" letter-spacing="0em"><tspan x="282.492" y="391.938">11,5%</tspan></text>
<path id="Vector_32" d="M0.400024 1.29999H332.4" stroke="black" stroke-width="0.7342" stroke-miterlimit="10" stroke-linejoin="bevel"/>
<path id="Vector_33" d="M0.400024 327.1H332.4" stroke="black" stroke-width="0.7342" stroke-miterlimit="10" stroke-linejoin="bevel"/>
<path id="Vector_34" d="M365.7 1.29999H709" stroke="black" stroke-width="0.7342" stroke-miterlimit="10" stroke-linejoin="bevel"/>
<g id="Group_19">
<text id="Directivos_2" fill="black" xml:space="preserve" style="white-space: pre" font-family="Fira Sans Condensed" font-size="19.5857" font-weight="200" letter-spacing="0em"><tspan x="369.441" y="154.02">Directivos</tspan></text>
</g>
<g id="Group_20">
<path id="Vector_35" d="M706.5 184.3H642.4V210.1H706.5V184.3Z" fill="#009640" stroke="white" stroke-width="2.4482" stroke-miterlimit="10"/>
<path id="Vector_36" d="M642.4 184.3H365.6V210.1H642.4V184.3Z" fill="black" stroke="white" stroke-width="2.4482" stroke-miterlimit="10"/>
</g>
<text id="81,2" fill="black" xml:space="preserve" style="white-space: pre" font-family="Fira Sans Condensed" font-size="20.8098" font-weight="800" letter-spacing="0em"><tspan x="370.877" y="175.519">81,2</tspan></text>
<g id="Group_21">
<text id="18,8_2" fill="black" xml:space="preserve" style="white-space: pre" font-family="Fira Sans Condensed" font-size="20.7364" font-weight="800" letter-spacing="0em"><tspan x="670.583" y="175.507">18,8</tspan></text>
</g>
<g id="Group_22">
<text id="Mandos intermedios_2" fill="black" xml:space="preserve" style="white-space: pre" font-family="Fira Sans Condensed" font-size="19.5857" font-weight="200" letter-spacing="0em"><tspan x="369.441" y="256.003">Mandos intermedios</tspan></text>
</g>
<g id="Group_23">
<path id="Vector_37" d="M706.6 287.2H609.4V313H706.6V287.2Z" fill="#009640" stroke="white" stroke-width="2.4482" stroke-miterlimit="10"/>
<path id="Vector_38" d="M609.4 287.2H365.6V313H609.4V287.2Z" fill="black" stroke="white" stroke-width="2.4482" stroke-miterlimit="10"/>
</g>
<text id="71,5" fill="black" xml:space="preserve" style="white-space: pre" font-family="Fira Sans Condensed" font-size="20.8098" font-weight="800" letter-spacing="0em"><tspan x="370.877" y="277.611">71,5</tspan></text>
<g id="Group_24">
<text id="28,5" fill="black" xml:space="preserve" style="white-space: pre" font-family="Fira Sans Condensed" font-size="20.7364" font-weight="800" letter-spacing="0em"><tspan x="670.562" y="277.601">28,5</tspan></text>
</g>
<g id="Group_25">
<text id="Empleados base_2" fill="black" xml:space="preserve" style="white-space: pre" font-family="Fira Sans Condensed" font-size="19.5857" font-weight="200" letter-spacing="0em"><tspan x="369.441" y="351.256">Empleados base</tspan></text>
</g>
<g id="Group_26">
<path id="Vector_39" d="M706.5 384.1H565.4V409.9H706.5V384.1Z" fill="#009640" stroke="white" stroke-width="2.4482" stroke-miterlimit="10"/>
<path id="Vector_40" d="M565.4 384.1H365.6V409.9H565.4V384.1Z" fill="black" stroke="white" stroke-width="2.4482" stroke-miterlimit="10"/>
</g>
<text id="58,6" fill="black" xml:space="preserve" style="white-space: pre" font-family="Fira Sans Condensed" font-size="20.8098" font-weight="800" letter-spacing="0em"><tspan x="370.877" y="372.546">58,6</tspan></text>
<g id="Group_27">
<text id="41,4" fill="black" xml:space="preserve" style="white-space: pre" font-family="Fira Sans Condensed" font-size="20.7364" font-weight="800" letter-spacing="0em"><tspan x="671.122" y="372.536">41,4</tspan></text>
</g>
<path id="Vector_41" d="M589.6 644.1C589.6 646.6 591.6 648.7 594.2 648.7C596.8 648.7 598.8 646.7 598.8 644.1C598.8 641.6 596.8 639.5 594.2 639.5C591.6 639.5 589.6 641.6 589.6 644.1Z" fill="#009E4D"/>
<path id="Vector_42" d="M643.5 645.9C643.5 648.4 645.5 650.5 648.1 650.5C650.7 650.5 652.7 648.5 652.7 645.9C652.7 643.3 650.7 641.3 648.1 641.3C645.5 641.3 643.5 643.4 643.5 645.9Z" fill="#009E4D"/>
<path id="Vector_43" d="M697.4 684.8C697.4 687.3 699.4 689.4 702 689.4C704.6 689.4 706.6 687.4 706.6 684.8C706.6 682.2 704.6 680.2 702 680.2C699.4 680.2 697.4 682.3 697.4 684.8Z" fill="#009E4D"/>
<path id="Vector_44" d="M1 748.7L54.9 621L108.8 632.6L162.7 742.9L216.7 611.6L270.6 620.2L324.5 579.9L378.4 606L432.4 617.1L486.3 595.5L540.2 623.2L594.1 644.5L648.1 645.9L702 684.8" stroke="#009E4D" stroke-width="1.2241" stroke-miterlimit="10"/>
<text id="19,5" fill="black" xml:space="preserve" style="white-space: pre" font-family="Fira Sans Condensed" font-size="20.8098" font-style="italic" font-weight="200" letter-spacing="0em"><tspan x="-0.994629" y="542.086">19,5</tspan></text>
<text id="11,9" fill="#009E4D" xml:space="preserve" style="white-space: pre" font-family="Fira Sans Condensed" font-size="20.7364" font-weight="800" letter-spacing="0em"><tspan x="-0.994629" y="771.296">11,9</tspan></text>
<text id="12,8" fill="black" xml:space="preserve" style="white-space: pre" font-family="Fira Sans Condensed" font-size="20.8098" font-style="italic" font-weight="200" letter-spacing="0em"><tspan x="27.21" y="745.943">12,8</tspan></text>
<text id="17,0" fill="#009E4D" xml:space="preserve" style="white-space: pre" font-family="Fira Sans Condensed" font-size="20.7364" font-weight="800" letter-spacing="0em"><tspan x="35.8316" y="604.46">17,0</tspan></text>
<text id="12,0" fill="black" xml:space="preserve" style="white-space: pre" font-family="Fira Sans Condensed" font-size="20.8098" font-style="italic" font-weight="200" letter-spacing="0em"><tspan x="80.9644" y="751.52">12,0</tspan></text>
<text id="16,5" fill="#009E4D" xml:space="preserve" style="white-space: pre" font-family="Fira Sans Condensed" font-size="20.7364" font-weight="800" letter-spacing="0em"><tspan x="93.1353" y="617.136">16,5</tspan></text>
<text id="11,7" fill="black" xml:space="preserve" style="white-space: pre" font-family="Fira Sans Condensed" font-size="20.8098" font-style="italic" font-weight="200" letter-spacing="0em"><tspan x="130.527" y="774.69">11,7</tspan></text>
<text id="12,0_2" fill="#009E4D" xml:space="preserve" style="white-space: pre" font-family="Fira Sans Condensed" font-size="20.7364" font-weight="800" letter-spacing="0em"><tspan x="172.617" y="740.187">12,0</tspan></text>
<text id="11,6" fill="black" xml:space="preserve" style="white-space: pre" font-family="Fira Sans Condensed" font-size="20.8098" font-style="italic" font-weight="200" letter-spacing="0em"><tspan x="185.838" y="777.026">11,6</tspan></text>
<text id="17,3" fill="#009E4D" xml:space="preserve" style="white-space: pre" font-family="Fira Sans Condensed" font-size="20.7364" font-weight="800" letter-spacing="0em"><tspan x="194.69" y="598.129">17,3</tspan></text>
<text id="10,3" fill="black" xml:space="preserve" style="white-space: pre" font-family="Fira Sans Condensed" font-size="20.8098" font-style="italic" font-weight="200" letter-spacing="0em"><tspan x="252.683" y="807.389">10,3</tspan></text>
<text id="17,0_2" fill="#009E4D" xml:space="preserve" style="white-space: pre" font-family="Fira Sans Condensed" font-size="20.7364" font-weight="800" letter-spacing="0em"><tspan x="252" y="643.507">17,0</tspan></text>
<text id="11,7_2" fill="black" xml:space="preserve" style="white-space: pre" font-family="Fira Sans Condensed" font-size="20.8098" font-style="italic" font-weight="200" letter-spacing="0em"><tspan x="296.36" y="738.814">11,7</tspan></text>
<text id="18,6" fill="#009E4D" xml:space="preserve" style="white-space: pre" font-family="Fira Sans Condensed" font-size="20.7364" font-weight="800" letter-spacing="0em"><tspan x="302.237" y="565.269">18,6</tspan></text>
<text id="12,5" fill="black" xml:space="preserve" style="white-space: pre" font-family="Fira Sans Condensed" font-size="20.8098" font-style="italic" font-weight="200" letter-spacing="0em"><tspan x="357.061" y="717.086">12,5</tspan></text>
<text id="17,5" fill="#009E4D" xml:space="preserve" style="white-space: pre" font-family="Fira Sans Condensed" font-size="20.7364" font-weight="800" letter-spacing="0em"><tspan x="371.664" y="593.529">17,5</tspan></text>
<text id="11,8" fill="black" xml:space="preserve" style="white-space: pre" font-family="Fira Sans Condensed" font-size="20.8098" font-style="italic" font-weight="200" letter-spacing="0em"><tspan x="418.319" y="773.045">11,8</tspan></text>
<text id="17,1" fill="#009E4D" xml:space="preserve" style="white-space: pre" font-family="Fira Sans Condensed" font-size="20.7364" font-weight="800" letter-spacing="0em"><tspan x="412.74" y="638.24">17,1</tspan></text>
<text id="13,2" fill="black" xml:space="preserve" style="white-space: pre" font-family="Fira Sans Condensed" font-size="20.8098" font-style="italic" font-weight="200" letter-spacing="0em"><tspan x="484.502" y="735.555">13,2</tspan></text>
<text id="18,0" fill="#009E4D" xml:space="preserve" style="white-space: pre" font-family="Fira Sans Condensed" font-size="20.7364" font-weight="800" letter-spacing="0em"><tspan x="467.591" y="580.972">18,0</tspan></text>
<text id="15,4" fill="black" xml:space="preserve" style="white-space: pre" font-family="Fira Sans Condensed" font-size="20.8098" font-style="italic" font-weight="200" letter-spacing="0em"><tspan x="535.719" y="685.347">15,4</tspan></text>
<text id="16,9" fill="#009E4D" xml:space="preserve" style="white-space: pre" font-family="Fira Sans Condensed" font-size="20.7364" font-weight="800" letter-spacing="0em"><tspan x="530.14" y="610.382">16,9</tspan></text>
<text id="16,2" fill="black" xml:space="preserve" style="white-space: pre" font-family="Fira Sans Condensed" font-size="20.8098" font-style="italic" font-weight="200" letter-spacing="0em"><tspan x="583.388" y="626.523">16,2</tspan></text>
<text id="16,1" fill="#009E4D" xml:space="preserve" style="white-space: pre" font-family="Fira Sans Condensed" font-size="20.7364" font-weight="800" letter-spacing="0em"><tspan x="569.519" y="663.715">16,1</tspan></text>
<text id="16,4" fill="black" xml:space="preserve" style="white-space: pre" font-family="Fira Sans Condensed" font-size="20.8098" font-style="italic" font-weight="200" letter-spacing="0em"><tspan x="657.694" y="640.093">16,4</tspan></text>
<text id="15,9" fill="#009E4D" xml:space="preserve" style="white-space: pre" font-family="Fira Sans Condensed" font-size="20.7364" font-weight="800" letter-spacing="0em"><tspan x="618.471" y="670.1">15,9</tspan></text>
<path id="Vector_45" d="M1.20001 556.8C1.20001 559.3 3.20001 561.4 5.80001 561.4C8.40001 561.4 10.4 559.4 10.4 556.8C10.4 554.3 8.40001 552.2 5.80001 552.2C3.20001 552.2 1.20001 554.3 1.20001 556.8Z" fill="#77C8D2"/>
<path id="Vector_46" d="M50.3 724.6C50.3 727.1 52.3 729.2 54.9 729.2C57.5 729.2 59.5 727.2 59.5 724.6C59.5 722.1 57.5 720 54.9 720C52.3 720 50.3 722.1 50.3 724.6Z" fill="#77C8D2"/>
<path id="Vector_47" d="M104.3 729.2C104.3 731.7 106.3 733.8 108.9 733.8C111.4 733.8 113.5 731.8 113.5 729.2C113.5 726.6 111.5 724.6 108.9 724.6C106.3 724.6 104.3 726.7 104.3 729.2Z" fill="#77C8D2"/>
<path id="Vector_48" d="M158.2 753C158.2 755.5 160.2 757.6 162.8 757.6C165.4 757.6 167.4 755.6 167.4 753C167.4 750.5 165.4 748.4 162.8 748.4C160.2 748.4 158.2 750.5 158.2 753Z" fill="#77C8D2"/>
<path id="Vector_49" d="M212.1 754.1C212.1 756.6 214.1 758.7 216.7 758.7C219.3 758.7 221.3 756.7 221.3 754.1C221.3 751.5 219.3 749.5 216.7 749.5C214.1 749.5 212.1 751.5 212.1 754.1Z" fill="#77C8D2"/>
<path id="Vector_50" d="M319.9 753.6C319.9 756.1 321.9 758.2 324.5 758.2C327 758.2 329.1 756.2 329.1 753.6C329.1 751.1 327.1 749 324.5 749C322 749 319.9 751 319.9 753.6Z" fill="#77C8D2"/>
<path id="Vector_51" d="M373.9 732.8C373.9 735.3 375.9 737.4 378.5 737.4C381 737.4 383.1 735.4 383.1 732.8C383.1 730.3 381.1 728.2 378.5 728.2C375.9 728.2 373.9 730.2 373.9 732.8Z" fill="#77C8D2"/>
<path id="Vector_52" d="M427.8 750C427.8 752.5 429.8 754.6 432.4 754.6C434.9 754.6 437 752.6 437 750C437 747.4 435 745.4 432.4 745.4C429.8 745.4 427.8 747.5 427.8 750Z" fill="#77C8D2"/>
<path id="Vector_53" d="M535.6 661.3C535.6 663.8 537.6 665.9 540.2 665.9C542.8 665.9 544.8 663.9 544.8 661.3C544.8 658.8 542.8 656.7 540.2 656.7C537.6 656.7 535.6 658.7 535.6 661.3Z" fill="#77C8D2"/>
<path id="Vector_54" d="M266 786C266 788.5 268 790.6 270.6 790.6C273.1 790.6 275.2 788.6 275.2 786C275.2 783.5 273.2 781.4 270.6 781.4C268.1 781.4 266 783.5 266 786Z" fill="#77C8D2"/>
<path id="Vector_55" d="M481.7 715C481.7 717.5 483.7 719.6 486.3 719.6C488.8 719.6 490.9 717.6 490.9 715C490.9 712.5 488.9 710.4 486.3 710.4C483.8 710.4 481.7 712.5 481.7 715Z" fill="#77C8D2"/>
<path id="Vector_56" d="M643.5 634.9C643.5 637.4 645.5 639.5 648.1 639.5C650.7 639.5 652.7 637.5 652.7 634.9C652.7 632.3 650.7 630.3 648.1 630.3C645.5 630.3 643.5 632.4 643.5 634.9Z" fill="#77C8D2"/>
<path id="Vector_57" d="M697.4 575.6C697.4 578.1 699.4 580.2 702 580.2C704.6 580.2 706.6 578.2 706.6 575.6C706.6 573.1 704.6 571 702 571C699.4 571 697.4 573 697.4 575.6Z" fill="#77C8D2"/>
<path id="Vector_58" d="M589.6 640C589.6 642.5 591.6 644.6 594.2 644.6C596.8 644.6 598.8 642.6 598.8 640C598.8 637.5 596.8 635.4 594.2 635.4C591.6 635.4 589.6 637.4 589.6 640Z" fill="#77C8D2"/>
<path id="Vector_59" d="M1 556.8L54.9 724.6L108.8 729.2L162.7 753L216.7 754.1L270.6 786L324.5 753.6L378.4 732.8L432.4 750L486.3 715L540.2 661.3L594.1 640L648.1 634.9L702 575.6" stroke="#77C8D2" stroke-width="1.2241" stroke-miterlimit="10"/>
<path id="Vector_60" d="M-1 875H709.8" stroke="black" stroke-width="0.7345" stroke-miterlimit="10"/>
<path id="Vector_61" d="M0.400024 227H332.4" stroke="black" stroke-width="0.7342" stroke-miterlimit="10" stroke-linejoin="bevel"/>
<path id="Vector_62" d="M363.3 327.1H707.6" stroke="black" stroke-width="0.7345" stroke-miterlimit="10" stroke-linejoin="bevel"/>
<path id="Vector_63" d="M363.3 227H707.6" stroke="black" stroke-width="0.7345" stroke-miterlimit="10" stroke-linejoin="bevel"/>
</g>
<defs>
<clipPath id="clip0">
<rect width="710" height="877.1" fill="white"/>
</clipPath>
</defs>
</svg>
