<?xml version="1.0" encoding="utf-8"?>
<svg viewBox="0 0 289 357" xmlns="http://www.w3.org/2000/svg">
  <defs>
    <style>.cls-1{font-size:7.97px;letter-spacing:-0.01em;}.cls-1,.cls-10,.cls-11,.cls-12,.cls-24,.cls-3,.cls-4,.cls-6,.cls-8{fill:#1d1d1b;}.cls-1,.cls-12,.cls-25{font-family:TazBarcelona;}.cls-2,.cls-20,.cls-23,.cls-26{fill:none;}.cls-2,.cls-20{stroke:#1d1d1b;stroke-linejoin:bevel;}.cls-2{stroke-width:0.3px;}.cls-12,.cls-3,.cls-4{font-size:8px;}.cls-3{font-family:TazBarcelona-Black, TazBarcelona;letter-spacing:0.01em;}.cls-10,.cls-3,.cls-6,.cls-7{font-weight:800;}.cls-4{font-family:TazBarcelona-SemiLight, TazBarcelona;font-weight:300;}.cls-19,.cls-4{letter-spacing:-0.01em;}.cls-25,.cls-5,.cls-7{fill:#009e4d;}.cls-11,.cls-25,.cls-6,.cls-7{font-size:8.47px;}.cls-10,.cls-6,.cls-7{font-family:TazBarcelona-ExtraBold, TazBarcelona;}.cls-9{fill:#77c8d2;}.cls-10,.cls-24{font-size:8.5px;}.cls-11{font-family:TazBarcelona-Bold, TazBarcelona;font-weight:700;}.cls-13{letter-spacing:-0.02em;}.cls-14{letter-spacing:-0.01em;}.cls-15,.cls-21{fill:#009640;}.cls-16{letter-spacing:-0.01em;}.cls-17{letter-spacing:-0.02em;}.cls-18{letter-spacing:-0.01em;}.cls-20{stroke-width:0.3px;}.cls-21,.cls-22{stroke:#fff;}.cls-21,.cls-22,.cls-23,.cls-26{stroke-miterlimit:10;}.cls-23{stroke:#009e4d;}.cls-23,.cls-26{stroke-width:0.5px;}.cls-24{font-family:TazBarcelona-SemiBold, TazBarcelona;font-weight:600;}.cls-26{stroke:#77c8d2;}</style>
  </defs>
  <text class="cls-1" transform="matrix(1, 0, 0, 1, 0, 358)" style="white-space: pre;">2008</text>
  <text class="cls-1" transform="matrix(1, 0, 0, 1, 20.02, 358)" style="white-space: pre;">2009</text>
  <text class="cls-1" transform="matrix(1, 0, 0, 1, 63.400002, 358)" style="white-space: pre;">2011</text>
  <text class="cls-1" transform="matrix(1, 0, 0, 1, 107.449997, 358)" style="white-space: pre;">2013</text>
  <text class="cls-1" transform="matrix(1, 0, 0, 1, 153.490005, 358)" style="white-space: pre;">2015</text>
  <text class="cls-1" transform="matrix(1, 0, 0, 1, 196.869995, 358)" style="white-space: pre;">2017</text>
  <text class="cls-1" transform="matrix(1, 0, 0, 1, 241.25, 358)" style="white-space: pre;">2019</text>
  <text class="cls-1" transform="matrix(1, 0, 0, 1, 272.290009, 358)" style="white-space: pre;">2021</text>
  <line class="cls-2" x1="111.16" y1="345.33" x2="111.16" y2="349.26"/>
  <line class="cls-2" x1="0.95" y1="345.33" x2="0.95" y2="349.26"/>
  <line class="cls-2" x1="22.52" y1="345.33" x2="22.52" y2="349.26"/>
  <line class="cls-2" x1="66.84" y1="345.33" x2="66.84" y2="349.26"/>
  <line class="cls-2" x1="155.48" y1="345.33" x2="155.48" y2="349.26"/>
  <line class="cls-2" x1="199.8" y1="345.33" x2="199.8" y2="349.26"/>
  <line class="cls-2" x1="244.11" y1="345.33" x2="244.11" y2="349.26"/>
  <line class="cls-2" x1="288.43" y1="345.33" x2="288.43" y2="349.26"/>
  <text class="cls-3" transform="matrix(1, 0, 0, 1, 0.87, 17.120001)" style="white-space: pre;">Diferencia retributiva por categoría <tspan x="0" y="9">profesional en el 2021</tspan></text>
  <text class="cls-4" transform="matrix(1, 0, 0, 1, 7.39, 49.32)" style="white-space: pre;">Hombres</text>
  <text class="cls-4" transform="matrix(1, 0, 0, 1, 46.689999, 49.32)" style="white-space: pre;">Mujeres</text>
  <text class="cls-4" transform="matrix(1, 0, 0, 1, 0.87, 37.32)" style="white-space: pre;">En euros</text>
  <text class="cls-3" transform="matrix(1, 0, 0, 1, 1.59, 189.960007)" style="white-space: pre;">Evolución de las diferencias retributivas y presencia de la mujer en cargos directivos</text>
  <path class="cls-5" d="M.88,313.79a1.87,1.87,0,1,0,1.87-1.87A1.87,1.87,0,0,0,.88,313.79Z"/>
  <path class="cls-5" d="M21,261.6a1.86,1.86,0,1,0,1.86-1.86A1.86,1.86,0,0,0,21,261.6Z"/>
  <path class="cls-5" d="M43,266.33a1.87,1.87,0,1,0,1.86-1.87A1.86,1.86,0,0,0,43,266.33Z"/>
  <path class="cls-5" d="M65,311.39a1.87,1.87,0,1,0,1.86-1.86A1.87,1.87,0,0,0,65,311.39Z"/>
  <path class="cls-5" d="M87,257.76a1.87,1.87,0,1,0,1.87-1.86A1.87,1.87,0,0,0,87,257.76Z"/>
  <path class="cls-5" d="M131.09,244.82A1.87,1.87,0,1,0,133,243,1.87,1.87,0,0,0,131.09,244.82Z"/>
  <path class="cls-5" d="M153.12,255.47a1.87,1.87,0,1,0,1.86-1.86A1.87,1.87,0,0,0,153.12,255.47Z"/>
  <path class="cls-5" d="M175.14,260a1.87,1.87,0,1,0,1.87-1.86A1.87,1.87,0,0,0,175.14,260Z"/>
  <path class="cls-5" d="M219.2,262.52a1.86,1.86,0,1,0,1.86-1.87A1.86,1.86,0,0,0,219.2,262.52Z"/>
  <text class="cls-6" transform="matrix(1, 0, 0, 1, 272.859985, 239.190002)" style="white-space: pre;">18,8</text>
  <path class="cls-5" d="M109.07,261.29a1.87,1.87,0,1,0,1.86-1.86A1.87,1.87,0,0,0,109.07,261.29Z"/>
  <path class="cls-5" d="M197.17,251.18a1.87,1.87,0,1,0,1.86-1.86A1.87,1.87,0,0,0,197.17,251.18Z"/>
  <text class="cls-7" transform="matrix(1, 0, 0, 1, 272.859985, 298.200012)" style="white-space: pre;">14,4</text>
  <path class="cls-5" d="M39.78,46.29a2.06,2.06,0,1,0,2-2A2.05,2.05,0,0,0,39.78,46.29Z"/>
  <path class="cls-8" d="M1,46.29a2.06,2.06,0,1,0,2.06-2A2.06,2.06,0,0,0,1,46.29Z"/>
  <text class="cls-4" transform="matrix(1, 0, 0, 1, 7.39, 203.929993)" style="white-space: pre;">Porcentaje de presencia de la mujer <tspan x="0" y="9.6">en cargos directivos</tspan></text>
  <text class="cls-4" transform="matrix(1, 0, 0, 1, 134.270004, 203.929993)" style="white-space: pre;">Porcentaje de diferencia salarial entre hombres<tspan x="0" y="9.6">y mujeres directivas</tspan></text>
  <path class="cls-5" d="M127.36,200.89a2,2,0,1,0,2-2A2,2,0,0,0,127.36,200.89Z"/>
  <path class="cls-9" d="M1,200.89a2.06,2.06,0,1,0,2.06-2A2.06,2.06,0,0,0,1,200.89Z"/>
  <text class="cls-3" transform="matrix(1, 0, 0, 1, 149.740005, 17.120001)" style="white-space: pre;">Cuota de presencia por categoría <tspan x="0" y="9">profesional en el 2021</tspan></text>
  <text class="cls-4" transform="matrix(1, 0, 0, 1, 155.289993, 49.32)" style="white-space: pre;">Hombres</text>
  <text class="cls-4" transform="matrix(1, 0, 0, 1, 197.589996, 49.32)" style="white-space: pre;">Mujeres</text>
  <text class="cls-4" transform="matrix(1, 0, 0, 1, 149.740005, 37.32)" style="white-space: pre;">En euros</text>
  <path class="cls-5" d="M190.68,46.29a2.06,2.06,0,1,0,2-2A2.05,2.05,0,0,0,190.68,46.29Z"/>
  <path class="cls-8" d="M149.74,46.29a2.06,2.06,0,1,0,2.06-2A2.06,2.06,0,0,0,149.74,46.29Z"/>
  <text class="cls-10" transform="matrix(1, 0, 0, 1, 87.830002, 77.860001)" style="white-space: pre;">87.626</text>
  <text class="cls-11" transform="matrix(1, 0, 0, 1, 74.43, 88.190002)" style="white-space: pre;">76.610</text>
  <text class="cls-12" transform="matrix(1, 0, 0, 1, 0.85, 67.199997)" style="white-space: pre;">Di<tspan class="cls-13" x="6.41" y="0">r</tspan><tspan x="8.74" y="0">ecti</tspan><tspan class="cls-14" x="19.66" y="0">v</tspan><tspan x="22.87" y="0">os</tspan></text>
  <rect class="cls-8" x="0.99" y="70.99" width="84.4" height="7.8"/>
  <rect class="cls-15" x="0.99" y="81.19" width="71" height="7.8"/>
  <text class="cls-10" transform="matrix(1, 0, 0, 1, 115.790001, 83.190002)" style="white-space: pre;">14,4%</text>
  <text class="cls-10" transform="matrix(1, 0, 0, 1, 47.860001, 119.510002)" style="white-space: pre;">44.444</text>
  <text class="cls-11" transform="matrix(1, 0, 0, 1, 41.98, 129.850006)" style="white-space: pre;">40.042</text>
  <text class="cls-12" transform="matrix(1, 0, 0, 1, 0.85, 108.849998)" style="white-space: pre;">Mandos i<tspan class="cls-16" x="28.34" y="0">n</tspan><tspan class="cls-17" x="32.31" y="0">t</tspan><tspan x="34.54" y="0">ermedios</tspan></text>
  <rect class="cls-8" x="0.99" y="112.65" width="43.64" height="7.8"/>
  <rect class="cls-15" x="0.99" y="122.85" width="38.91" height="7.8"/>
  <text class="cls-10" transform="matrix(1, 0, 0, 1, 115.790001, 123.510002)" style="white-space: pre;">11,0%</text>
  <text class="cls-10" transform="matrix(1, 0, 0, 1, 28.16, 160.169998)" style="white-space: pre;">26.932</text>
  <text class="cls-11" transform="matrix(1, 0, 0, 1, 26.43, 170.509995)" style="white-space: pre;">24.164</text>
  <text class="cls-12" transform="matrix(1, 0, 0, 1, 0.85, 149.509995)" style="white-space: pre;">Empleados <tspan class="cls-18" x="35.56" y="0">b</tspan><tspan x="39.45" y="0">a</tspan><tspan class="cls-19" x="43.28" y="0">s</tspan><tspan x="46.12" y="0">e</tspan></text>
  <rect class="cls-8" x="0.99" y="153.3" width="25.43" height="7.8"/>
  <rect class="cls-15" x="0.99" y="163.5" width="22.87" height="7.8"/>
  <text class="cls-10" transform="matrix(1, 0, 0, 1, 115.790001, 164.5)" style="white-space: pre;">11,5%</text>
  <line class="cls-20" x1="0.56" y1="3.56" x2="136.17" y2="3.56"/>
  <line class="cls-20" x1="0.56" y1="137.46" x2="136.17" y2="137.46"/>
  <line class="cls-20" x1="149.77" y1="3.56" x2="290" y2="3.56"/>
  <text class="cls-12" transform="matrix(1, 0, 0, 1, 151.309998, 67.199997)" style="white-space: pre;">Di<tspan class="cls-13" x="6.41" y="0">r</tspan><tspan x="8.74" y="0">ecti</tspan><tspan class="cls-14" x="19.66" y="0">v</tspan><tspan x="22.87" y="0">os</tspan></text>
  <rect class="cls-21" x="262.82" y="79.16" width="26.18" height="10.55"/>
  <rect class="cls-22" x="149.74" y="79.16" width="113.08" height="10.55"/>
  <text class="cls-10" transform="matrix(1, 0, 0, 1, 151.899994, 76.110001)" style="white-space: pre;">81,2</text>
  <text class="cls-11" transform="matrix(1, 0, 0, 1, 273.480011, 76.080002)" style="white-space: pre;">18,8</text>
  <text class="cls-12" transform="matrix(1, 0, 0, 1, 151.309998, 108.849998)" style="white-space: pre;">Mandos i<tspan class="cls-16" x="28.34" y="0">n</tspan><tspan class="cls-17" x="32.31" y="0">t</tspan><tspan x="34.54" y="0">ermedios</tspan></text>
  <rect class="cls-21" x="249.31" y="121.16" width="39.69" height="10.55"/>
  <rect class="cls-22" x="149.74" y="121.16" width="99.57" height="10.55"/>
  <text class="cls-10" transform="matrix(1, 0, 0, 1, 151.899994, 117.809998)" style="white-space: pre;">71,5</text>
  <text class="cls-11" transform="matrix(1, 0, 0, 1, 273.480011, 117.779999)" style="white-space: pre;">28,5</text>
  <text class="cls-12" transform="matrix(1, 0, 0, 1, 151.309998, 147.759995)" style="white-space: pre;">Empleados <tspan class="cls-18" x="35.56" y="0">b</tspan><tspan x="39.45" y="0">a</tspan><tspan class="cls-19" x="43.28" y="0">s</tspan><tspan x="46.12" y="0">e</tspan></text>
  <rect class="cls-21" x="231.35" y="160.75" width="57.65" height="10.55"/>
  <rect class="cls-22" x="149.74" y="160.75" width="81.61" height="10.55"/>
  <text class="cls-10" transform="matrix(1, 0, 0, 1, 151.899994, 156.580002)" style="white-space: pre;">58,6</text>
  <text class="cls-11" transform="matrix(1, 0, 0, 1, 273.480011, 156.559998)" style="white-space: pre;">41,4</text>
  <path class="cls-5" d="M241.22,271a1.87,1.87,0,1,0,1.86-1.86A1.86,1.86,0,0,0,241.22,271Z"/>
  <path class="cls-5" d="M263.25,271.79a1.86,1.86,0,1,0,1.86-1.87A1.86,1.86,0,0,0,263.25,271.79Z"/>
  <path class="cls-5" d="M285.27,287.67a1.87,1.87,0,1,0,1.86-1.87A1.87,1.87,0,0,0,285.27,287.67Z"/>
  <polyline class="cls-23" points="0.81 313.79 22.83 261.6 44.86 266.33 66.88 311.39 88.91 257.76 110.93 261.29 132.96 244.82 154.98 255.47 177.01 260.03 199.03 251.19 221.06 262.52 243.08 271.21 265.11 271.79 287.14 287.67"/>
  <text class="cls-24" transform="matrix(1, 0, 0, 1, 0, 229.919998)" style="white-space: pre;">19,5</text>
  <text class="cls-25" transform="matrix(1, 0, 0, 1, 0, 323.519989)" style="white-space: pre;">11,9</text>
  <text class="cls-24" transform="matrix(1, 0, 0, 1, 11.52, 313.190002)" style="white-space: pre;">12,8</text>
  <text class="cls-25" transform="matrix(1, 0, 0, 1, 15.04, 255.380005)" style="white-space: pre;">17,0</text>
  <text class="cls-24" transform="matrix(1, 0, 0, 1, 33.48, 315.470001)" style="white-space: pre;">12,0</text>
  <text class="cls-25" transform="matrix(1, 0, 0, 1, 38.450001, 260.549988)" style="white-space: pre;">16,5</text>
  <text class="cls-24" transform="matrix(1, 0, 0, 1, 53.720001, 324.929993)" style="white-space: pre;">11,7</text>
  <text class="cls-25" transform="matrix(1, 0, 0, 1, 70.910004, 310.820007)" style="white-space: pre;">12,0</text>
  <text class="cls-24" transform="matrix(1, 0, 0, 1, 76.309998, 325.880005)" style="white-space: pre;">11,6</text>
  <text class="cls-25" transform="matrix(1, 0, 0, 1, 79.93, 252.789993)" style="white-space: pre;">17,3</text>
  <text class="cls-24" transform="matrix(1, 0, 0, 1, 103.620003, 338.290009)" style="white-space: pre;">10,3</text>
  <text class="cls-25" transform="matrix(1, 0, 0, 1, 103.339996, 271.329987)" style="white-space: pre;">17,0</text>
  <text class="cls-24" transform="matrix(1, 0, 0, 1, 121.459999, 310.269989)" style="white-space: pre;">11,7</text>
  <text class="cls-25" transform="matrix(1, 0, 0, 1, 123.860001, 239.369995)" style="white-space: pre;">18,6</text>
  <text class="cls-24" transform="matrix(1, 0, 0, 1, 146.25, 301.399994)" style="white-space: pre;">12,5</text>
  <text class="cls-25" transform="matrix(1, 0, 0, 1, 152.220001, 250.910004)" style="white-space: pre;">17,5</text>
  <text class="cls-24" transform="matrix(1, 0, 0, 1, 171.270004, 324.26001)" style="white-space: pre;">11,8</text>
  <text class="cls-25" transform="matrix(1, 0, 0, 1, 168.990005, 269.170013)" style="white-space: pre;">17,1</text>
  <text class="cls-24" transform="matrix(1, 0, 0, 1, 198.309998, 308.940002)" style="white-space: pre;">13,2</text>
  <text class="cls-25" transform="matrix(1, 0, 0, 1, 191.399994, 245.779999)" style="white-space: pre;">18,0</text>
  <text class="cls-24" transform="matrix(1, 0, 0, 1, 219.229996, 288.440002)" style="white-space: pre;">15,4</text>
  <text class="cls-25" transform="matrix(1, 0, 0, 1, 216.949997, 257.799988)" style="white-space: pre;">16,9</text>
  <text class="cls-24" transform="matrix(1, 0, 0, 1, 238.699997, 264.410004)" style="white-space: pre;">16,2</text>
  <text class="cls-25" transform="matrix(1, 0, 0, 1, 233.029999, 279.579987)" style="white-space: pre;">16,1</text>
  <text class="cls-24" transform="matrix(1, 0, 0, 1, 269.049988, 269.950012)" style="white-space: pre;">16,4</text>
  <text class="cls-25" transform="matrix(1, 0, 0, 1, 253.029999, 282.190002)" style="white-space: pre;">15,9</text>
  <path class="cls-9" d="M.88,235.38a1.87,1.87,0,1,0,1.87-1.86A1.87,1.87,0,0,0,.88,235.38Z"/>
  <path class="cls-9" d="M21,303.94a1.86,1.86,0,1,0,1.86-1.86A1.87,1.87,0,0,0,21,303.94Z"/>
  <path class="cls-9" d="M43,305.81a1.87,1.87,0,1,0,1.86-1.87A1.86,1.86,0,0,0,43,305.81Z"/>
  <path class="cls-9" d="M65,315.54a1.87,1.87,0,1,0,1.86-1.86A1.86,1.86,0,0,0,65,315.54Z"/>
  <path class="cls-9" d="M87,316a1.87,1.87,0,1,0,1.87-1.87A1.87,1.87,0,0,0,87,316Z"/>
  <path class="cls-9" d="M131.09,315.75a1.87,1.87,0,1,0,1.87-1.87A1.87,1.87,0,0,0,131.09,315.75Z"/>
  <path class="cls-9" d="M153.12,307.26a1.87,1.87,0,1,0,1.86-1.87A1.86,1.86,0,0,0,153.12,307.26Z"/>
  <path class="cls-9" d="M175.14,314.3a1.87,1.87,0,1,0,1.87-1.87A1.87,1.87,0,0,0,175.14,314.3Z"/>
  <path class="cls-9" d="M219.2,278.05a1.86,1.86,0,1,0,1.86-1.86A1.86,1.86,0,0,0,219.2,278.05Z"/>
  <path class="cls-9" d="M109.07,329a1.87,1.87,0,1,0,1.86-1.86A1.87,1.87,0,0,0,109.07,329Z"/>
  <path class="cls-9" d="M197.17,300a1.87,1.87,0,1,0,1.86-1.87A1.86,1.86,0,0,0,197.17,300Z"/>
  <path class="cls-9" d="M263.25,267.28a1.86,1.86,0,1,0,1.86-1.87A1.86,1.86,0,0,0,263.25,267.28Z"/>
  <path class="cls-9" d="M285.27,243a1.87,1.87,0,1,0,1.86-1.86A1.87,1.87,0,0,0,285.27,243Z"/>
  <path class="cls-9" d="M241.22,269.35a1.87,1.87,0,1,0,1.86-1.86A1.86,1.86,0,0,0,241.22,269.35Z"/>
  <polyline class="cls-26" points="0.81 235.38 22.83 303.94 44.86 305.81 66.88 315.54 88.91 315.96 110.93 329 132.96 315.75 154.98 307.25 177.01 314.3 199.03 300 221.06 278.05 243.09 269.35 265.11 267.28 287.14 243.04"/>
  <line class="cls-20" x1="0.56" y1="96.59" x2="136.17" y2="96.59"/>
  <line class="cls-2" x1="148.81" y1="137.46" x2="289.43" y2="137.46"/>
  <line class="cls-2" x1="148.81" y1="96.59" x2="289.43" y2="96.59"/>
</svg>